<svg width="1180" height="94" viewBox="0 0 1180 94" fill="none" xmlns="http://www.w3.org/2000/svg">
<path d="M445.968 79.1035V83H444.655V73.0469H448.326C449.415 73.0469 450.268 73.3249 450.883 73.8809C451.503 74.4368 451.812 75.1729 451.812 76.0889C451.812 77.055 451.509 77.8001 450.903 78.3242C450.302 78.8438 449.438 79.1035 448.312 79.1035H445.968ZM445.968 78.0303H448.326C449.028 78.0303 449.566 77.8662 449.939 77.5381C450.313 77.2054 450.5 76.7269 450.5 76.1025C450.5 75.5101 450.313 75.0361 449.939 74.6807C449.566 74.3252 449.053 74.1406 448.401 74.127H445.968V78.0303ZM456.864 76.7383C456.673 76.7064 456.465 76.6904 456.242 76.6904C455.413 76.6904 454.85 77.0436 454.554 77.75V83H453.289V75.6035H454.52L454.54 76.458C454.955 75.7972 455.543 75.4668 456.304 75.4668C456.55 75.4668 456.737 75.4987 456.864 75.5625V76.7383ZM457.562 79.2334C457.562 78.5088 457.703 77.8571 457.985 77.2783C458.272 76.6995 458.669 76.2529 459.175 75.9385C459.685 75.624 460.266 75.4668 460.918 75.4668C461.925 75.4668 462.739 75.8154 463.358 76.5127C463.983 77.21 464.295 78.1374 464.295 79.2949V79.3838C464.295 80.1038 464.156 80.751 463.878 81.3252C463.604 81.8949 463.21 82.3392 462.695 82.6582C462.185 82.9772 461.597 83.1367 460.932 83.1367C459.929 83.1367 459.116 82.7881 458.491 82.0908C457.871 81.3936 457.562 80.4707 457.562 79.3223V79.2334ZM458.833 79.3838C458.833 80.2041 459.022 80.8626 459.4 81.3594C459.783 81.8561 460.294 82.1045 460.932 82.1045C461.574 82.1045 462.085 81.8538 462.463 81.3525C462.841 80.8467 463.03 80.1403 463.03 79.2334C463.03 78.4222 462.837 77.766 462.449 77.2646C462.066 76.7588 461.556 76.5059 460.918 76.5059C460.294 76.5059 459.79 76.7542 459.407 77.251C459.024 77.7477 458.833 78.4587 458.833 79.3838ZM465.573 79.2402C465.573 78.1055 465.842 77.194 466.38 76.5059C466.918 75.8132 467.622 75.4668 468.492 75.4668C469.358 75.4668 470.044 75.763 470.55 76.3555V72.5H471.814V83H470.652L470.591 82.207C470.085 82.8268 469.381 83.1367 468.479 83.1367C467.622 83.1367 466.922 82.7858 466.38 82.084C465.842 81.3822 465.573 80.4661 465.573 79.3359V79.2402ZM466.838 79.3838C466.838 80.2223 467.011 80.8786 467.357 81.3525C467.704 81.8265 468.182 82.0635 468.793 82.0635C469.595 82.0635 470.181 81.7035 470.55 80.9834V77.5859C470.172 76.8887 469.59 76.54 468.807 76.54C468.187 76.54 467.704 76.7793 467.357 77.2578C467.011 77.7363 466.838 78.445 466.838 79.3838ZM478.35 82.2686C477.857 82.8473 477.135 83.1367 476.183 83.1367C475.394 83.1367 474.793 82.9089 474.378 82.4531C473.968 81.9928 473.76 81.3138 473.756 80.416V75.6035H475.021V80.3818C475.021 81.5029 475.476 82.0635 476.388 82.0635C477.354 82.0635 477.996 81.7035 478.315 80.9834V75.6035H479.58V83H478.377L478.35 82.2686ZM484.475 82.1045C484.926 82.1045 485.32 81.9678 485.657 81.6943C485.994 81.4209 486.181 81.0791 486.218 80.6689H487.414C487.391 81.0928 487.245 81.4961 486.977 81.8789C486.708 82.2617 486.348 82.5671 485.896 82.7949C485.45 83.0228 484.976 83.1367 484.475 83.1367C483.467 83.1367 482.665 82.8018 482.068 82.1318C481.476 81.4574 481.18 80.5368 481.18 79.3701V79.1582C481.18 78.4382 481.312 77.7979 481.576 77.2373C481.84 76.6768 482.219 76.2415 482.711 75.9316C483.208 75.6217 483.793 75.4668 484.468 75.4668C485.297 75.4668 485.985 75.7152 486.532 76.2119C487.084 76.7087 487.378 77.3535 487.414 78.1465H486.218C486.181 77.668 485.999 77.276 485.671 76.9707C485.347 76.6608 484.946 76.5059 484.468 76.5059C483.825 76.5059 483.326 76.7383 482.971 77.2031C482.62 77.6634 482.444 78.3311 482.444 79.2061V79.4453C482.444 80.2975 482.62 80.9538 482.971 81.4141C483.322 81.8743 483.823 82.1045 484.475 82.1045ZM490.552 73.8125V75.6035H491.933V76.5811H490.552V81.168C490.552 81.4642 490.613 81.6875 490.736 81.8379C490.859 81.9837 491.069 82.0566 491.365 82.0566C491.511 82.0566 491.712 82.0293 491.967 81.9746V83C491.634 83.0911 491.311 83.1367 490.996 83.1367C490.431 83.1367 490.005 82.9658 489.718 82.624C489.431 82.2822 489.287 81.7969 489.287 81.168V76.5811H487.94V75.6035H489.287V73.8125H490.552Z" fill="#8794BA"/>
<path d="M530.968 79.1035V83H529.655V73.0469H533.326C534.415 73.0469 535.268 73.3249 535.883 73.8809C536.503 74.4368 536.812 75.1729 536.812 76.0889C536.812 77.055 536.509 77.8001 535.903 78.3242C535.302 78.8438 534.438 79.1035 533.312 79.1035H530.968ZM530.968 78.0303H533.326C534.028 78.0303 534.566 77.8662 534.939 77.5381C535.313 77.2054 535.5 76.7269 535.5 76.1025C535.5 75.5101 535.313 75.0361 534.939 74.6807C534.566 74.3252 534.053 74.1406 533.401 74.127H530.968V78.0303ZM541.864 76.7383C541.673 76.7064 541.465 76.6904 541.242 76.6904C540.413 76.6904 539.85 77.0436 539.554 77.75V83H538.289V75.6035H539.52L539.54 76.458C539.955 75.7972 540.543 75.4668 541.304 75.4668C541.55 75.4668 541.737 75.4987 541.864 75.5625V76.7383ZM544.407 83H543.143V75.6035H544.407V83ZM543.04 73.6416C543.04 73.4365 543.102 73.2633 543.225 73.1221C543.352 72.9808 543.539 72.9102 543.785 72.9102C544.031 72.9102 544.218 72.9808 544.346 73.1221C544.473 73.2633 544.537 73.4365 544.537 73.6416C544.537 73.8467 544.473 74.0176 544.346 74.1543C544.218 74.291 544.031 74.3594 543.785 74.3594C543.539 74.3594 543.352 74.291 543.225 74.1543C543.102 74.0176 543.04 73.8467 543.04 73.6416ZM549.404 82.1045C549.855 82.1045 550.25 81.9678 550.587 81.6943C550.924 81.4209 551.111 81.0791 551.147 80.6689H552.344C552.321 81.0928 552.175 81.4961 551.906 81.8789C551.637 82.2617 551.277 82.5671 550.826 82.7949C550.38 83.0228 549.906 83.1367 549.404 83.1367C548.397 83.1367 547.595 82.8018 546.998 82.1318C546.406 81.4574 546.109 80.5368 546.109 79.3701V79.1582C546.109 78.4382 546.242 77.7979 546.506 77.2373C546.77 76.6768 547.148 76.2415 547.641 75.9316C548.137 75.6217 548.723 75.4668 549.397 75.4668C550.227 75.4668 550.915 75.7152 551.462 76.2119C552.013 76.7087 552.307 77.3535 552.344 78.1465H551.147C551.111 77.668 550.929 77.276 550.601 76.9707C550.277 76.6608 549.876 76.5059 549.397 76.5059C548.755 76.5059 548.256 76.7383 547.9 77.2031C547.549 77.6634 547.374 78.3311 547.374 79.2061V79.4453C547.374 80.2975 547.549 80.9538 547.9 81.4141C548.251 81.8743 548.753 82.1045 549.404 82.1045ZM555.14 83H553.875V75.6035H555.14V83ZM553.772 73.6416C553.772 73.4365 553.834 73.2633 553.957 73.1221C554.085 72.9808 554.271 72.9102 554.518 72.9102C554.764 72.9102 554.951 72.9808 555.078 73.1221C555.206 73.2633 555.27 73.4365 555.27 73.6416C555.27 73.8467 555.206 74.0176 555.078 74.1543C554.951 74.291 554.764 74.3594 554.518 74.3594C554.271 74.3594 554.085 74.291 553.957 74.1543C553.834 74.0176 553.772 73.8467 553.772 73.6416ZM558.366 75.6035L558.407 76.5332C558.972 75.8223 559.711 75.4668 560.622 75.4668C562.185 75.4668 562.974 76.3486 562.987 78.1123V83H561.723V78.1055C561.718 77.5723 561.595 77.1781 561.354 76.9229C561.117 76.6676 560.745 76.54 560.239 76.54C559.829 76.54 559.469 76.6494 559.159 76.8682C558.849 77.0869 558.608 77.374 558.435 77.7295V83H557.17V75.6035H558.366ZM564.594 79.2402C564.594 78.0872 564.86 77.1712 565.394 76.4922C565.927 75.8086 566.633 75.4668 567.513 75.4668C568.415 75.4668 569.119 75.7858 569.625 76.4238L569.687 75.6035H570.842V82.8223C570.842 83.7793 570.557 84.5335 569.987 85.085C569.422 85.6364 568.661 85.9121 567.704 85.9121C567.171 85.9121 566.649 85.7982 566.139 85.5703C565.628 85.3424 565.239 85.0303 564.97 84.6338L565.626 83.875C566.168 84.5449 566.831 84.8799 567.615 84.8799C568.23 84.8799 568.709 84.7067 569.051 84.3604C569.397 84.014 569.57 83.5264 569.57 82.8975V82.2617C569.064 82.8451 568.374 83.1367 567.499 83.1367C566.633 83.1367 565.931 82.7881 565.394 82.0908C564.86 81.3936 564.594 80.4434 564.594 79.2402ZM565.865 79.3838C565.865 80.2178 566.036 80.874 566.378 81.3525C566.72 81.8265 567.198 82.0635 567.813 82.0635C568.611 82.0635 569.197 81.7012 569.57 80.9766V77.5996C569.183 76.8932 568.602 76.54 567.827 76.54C567.212 76.54 566.731 76.7793 566.385 77.2578C566.038 77.7363 565.865 78.445 565.865 79.3838ZM577.739 79.1035V83H576.427V73.0469H580.098C581.187 73.0469 582.039 73.3249 582.654 73.8809C583.274 74.4368 583.584 75.1729 583.584 76.0889C583.584 77.055 583.281 77.8001 582.675 78.3242C582.073 78.8438 581.21 79.1035 580.084 79.1035H577.739ZM577.739 78.0303H580.098C580.799 78.0303 581.337 77.8662 581.711 77.5381C582.085 77.2054 582.271 76.7269 582.271 76.1025C582.271 75.5101 582.085 75.0361 581.711 74.6807C581.337 74.3252 580.825 74.1406 580.173 74.127H577.739V78.0303ZM586.435 83H585.17V72.5H586.435V83ZM593.031 83C592.958 82.8542 592.899 82.5944 592.854 82.2207C592.266 82.8314 591.564 83.1367 590.748 83.1367C590.019 83.1367 589.42 82.9316 588.95 82.5215C588.485 82.1068 588.253 81.5827 588.253 80.9492C588.253 80.179 588.545 79.582 589.128 79.1582C589.716 78.7298 590.541 78.5156 591.603 78.5156H592.833V77.9346C592.833 77.4925 592.701 77.1416 592.437 76.8818C592.172 76.6175 591.783 76.4854 591.268 76.4854C590.816 76.4854 590.438 76.5993 590.133 76.8271C589.827 77.055 589.675 77.3307 589.675 77.6543H588.403C588.403 77.2852 588.533 76.9297 588.793 76.5879C589.057 76.2415 589.413 75.9681 589.859 75.7676C590.311 75.5671 590.805 75.4668 591.343 75.4668C592.195 75.4668 592.863 75.681 593.346 76.1094C593.829 76.5332 594.079 77.1188 594.098 77.8662V81.2705C594.098 81.9495 594.184 82.4896 594.357 82.8906V83H593.031ZM590.933 82.0361C591.329 82.0361 591.705 81.9336 592.061 81.7285C592.416 81.5234 592.674 81.2568 592.833 80.9287V79.4111H591.842C590.292 79.4111 589.518 79.8646 589.518 80.7715C589.518 81.168 589.65 81.4779 589.914 81.7012C590.178 81.9245 590.518 82.0361 590.933 82.0361ZM597.276 75.6035L597.317 76.5332C597.882 75.8223 598.621 75.4668 599.532 75.4668C601.095 75.4668 601.884 76.3486 601.897 78.1123V83H600.633V78.1055C600.628 77.5723 600.505 77.1781 600.264 76.9229C600.027 76.6676 599.655 76.54 599.149 76.54C598.739 76.54 598.379 76.6494 598.069 76.8682C597.759 77.0869 597.518 77.374 597.345 77.7295V83H596.08V75.6035H597.276ZM608.111 81.0381C608.111 80.6963 607.981 80.432 607.722 80.2451C607.466 80.0537 607.018 79.8896 606.375 79.7529C605.737 79.6162 605.229 79.4521 604.851 79.2607C604.477 79.0693 604.199 78.8415 604.017 78.5771C603.839 78.3128 603.75 77.9984 603.75 77.6338C603.75 77.0277 604.005 76.515 604.516 76.0957C605.031 75.6764 605.687 75.4668 606.484 75.4668C607.323 75.4668 608.002 75.6833 608.521 76.1162C609.046 76.5492 609.308 77.1029 609.308 77.7773H608.036C608.036 77.431 607.888 77.1325 607.592 76.8818C607.3 76.6312 606.931 76.5059 606.484 76.5059C606.024 76.5059 605.664 76.6061 605.404 76.8066C605.145 77.0072 605.015 77.2692 605.015 77.5928C605.015 77.8981 605.135 78.1283 605.377 78.2832C605.618 78.4382 606.054 78.5863 606.683 78.7275C607.316 78.8688 607.829 79.0374 608.221 79.2334C608.613 79.4294 608.902 79.6663 609.089 79.9443C609.28 80.2178 609.376 80.5527 609.376 80.9492C609.376 81.61 609.112 82.141 608.583 82.542C608.054 82.9385 607.368 83.1367 606.525 83.1367C605.933 83.1367 605.409 83.0319 604.953 82.8223C604.497 82.6126 604.14 82.321 603.88 81.9473C603.625 81.569 603.497 81.1611 603.497 80.7236H604.762C604.785 81.1475 604.953 81.4847 605.268 81.7354C605.587 81.9814 606.006 82.1045 606.525 82.1045C607.004 82.1045 607.387 82.0088 607.674 81.8174C607.965 81.6214 608.111 81.3617 608.111 81.0381Z" fill="#8794BA"/>
<path d="M653.145 78.6045H648.968V83H647.655V73.0469H653.821V74.127H648.968V77.5312H653.145V78.6045ZM659.728 80.4023H655.558L654.621 83H653.268L657.068 73.0469H658.217L662.024 83H660.678L659.728 80.4023ZM655.954 79.3223H659.338L657.643 74.667L655.954 79.3223ZM670.884 78.3447C670.884 79.3063 670.731 80.1357 670.426 80.833C670.12 81.5257 669.692 82.068 669.141 82.46L670.918 83.8545L670.022 84.6816L667.924 83.0137C667.596 83.0957 667.249 83.1367 666.885 83.1367C666.101 83.1367 665.406 82.9453 664.8 82.5625C664.194 82.1751 663.722 81.626 663.385 80.915C663.052 80.1995 662.881 79.3724 662.872 78.4336V77.7158C662.872 76.7588 663.038 75.9134 663.371 75.1797C663.704 74.446 664.173 73.8854 664.779 73.498C665.39 73.1061 666.087 72.9102 666.871 72.9102C667.673 72.9102 668.377 73.1038 668.983 73.4912C669.594 73.8786 670.063 74.4368 670.392 75.166C670.72 75.8906 670.884 76.7383 670.884 77.709V78.3447ZM669.571 77.7021C669.571 76.5309 669.337 75.6286 668.867 74.9951C668.402 74.3571 667.737 74.0381 666.871 74.0381C666.046 74.0381 665.395 74.3548 664.916 74.9883C664.442 75.6172 664.198 76.4922 664.185 77.6133V78.3447C664.185 79.484 664.422 80.3818 664.896 81.0381C665.374 81.6943 666.037 82.0225 666.885 82.0225C667.732 82.0225 668.389 81.7148 668.854 81.0996C669.318 80.4798 669.558 79.5934 669.571 78.4404V77.7021Z" fill="#8794BA"/>
<path d="M709.655 83V73.0469H712.909C713.989 73.0469 714.8 73.2702 715.343 73.7168C715.89 74.1634 716.163 74.8242 716.163 75.6992C716.163 76.1641 716.031 76.5765 715.767 76.9365C715.502 77.292 715.142 77.5677 714.687 77.7637C715.224 77.9141 715.648 78.2012 715.958 78.625C716.272 79.0443 716.43 79.5456 716.43 80.1289C716.43 81.0221 716.14 81.724 715.562 82.2344C714.983 82.7448 714.165 83 713.107 83H709.655ZM710.968 78.3447V81.9268H713.135C713.745 81.9268 714.226 81.7695 714.577 81.4551C714.933 81.1361 715.11 80.6986 715.11 80.1426C715.11 78.944 714.459 78.3447 713.155 78.3447H710.968ZM710.968 77.292H712.95C713.524 77.292 713.982 77.1484 714.324 76.8613C714.671 76.5742 714.844 76.1846 714.844 75.6924C714.844 75.1455 714.684 74.749 714.365 74.5029C714.046 74.2523 713.561 74.127 712.909 74.127H710.968V77.292ZM719.554 83H718.289V72.5H719.554V83ZM721.249 79.2334C721.249 78.5088 721.39 77.8571 721.673 77.2783C721.96 76.6995 722.356 76.2529 722.862 75.9385C723.373 75.624 723.954 75.4668 724.605 75.4668C725.613 75.4668 726.426 75.8154 727.046 76.5127C727.67 77.21 727.982 78.1374 727.982 79.2949V79.3838C727.982 80.1038 727.843 80.751 727.565 81.3252C727.292 81.8949 726.898 82.3392 726.383 82.6582C725.872 82.9772 725.285 83.1367 724.619 83.1367C723.617 83.1367 722.803 82.7881 722.179 82.0908C721.559 81.3936 721.249 80.4707 721.249 79.3223V79.2334ZM722.521 79.3838C722.521 80.2041 722.71 80.8626 723.088 81.3594C723.471 81.8561 723.981 82.1045 724.619 82.1045C725.262 82.1045 725.772 81.8538 726.15 81.3525C726.529 80.8467 726.718 80.1403 726.718 79.2334C726.718 78.4222 726.524 77.766 726.137 77.2646C725.754 76.7588 725.243 76.5059 724.605 76.5059C723.981 76.5059 723.478 76.7542 723.095 77.251C722.712 77.7477 722.521 78.4587 722.521 79.3838ZM729.268 79.2402C729.268 78.0872 729.534 77.1712 730.067 76.4922C730.601 75.8086 731.307 75.4668 732.187 75.4668C733.089 75.4668 733.793 75.7858 734.299 76.4238L734.36 75.6035H735.516V82.8223C735.516 83.7793 735.231 84.5335 734.661 85.085C734.096 85.6364 733.335 85.9121 732.378 85.9121C731.845 85.9121 731.323 85.7982 730.812 85.5703C730.302 85.3424 729.912 85.0303 729.644 84.6338L730.3 83.875C730.842 84.5449 731.505 84.8799 732.289 84.8799C732.904 84.8799 733.383 84.7067 733.725 84.3604C734.071 84.014 734.244 83.5264 734.244 82.8975V82.2617C733.738 82.8451 733.048 83.1367 732.173 83.1367C731.307 83.1367 730.605 82.7881 730.067 82.0908C729.534 81.3936 729.268 80.4434 729.268 79.2402ZM730.539 79.3838C730.539 80.2178 730.71 80.874 731.052 81.3525C731.394 81.8265 731.872 82.0635 732.487 82.0635C733.285 82.0635 733.87 81.7012 734.244 80.9766V77.5996C733.857 76.8932 733.276 76.54 732.501 76.54C731.886 76.54 731.405 76.7793 731.059 77.2578C730.712 77.7363 730.539 78.445 730.539 79.3838Z" fill="#8794BA"/>
<path d="M27.3812 70.5296C24.6786 66.5867 20.1414 64 15 64C6.71573 64 0 70.7157 0 79C0 80.2052 0.14215 81.3773 0.410585 82.5003L8.04917 74.8617C8.78141 74.1294 9.96859 74.1294 10.7008 74.8617L16.875 81.0358L27.3812 70.5296Z" fill="#8794BA"/>
<path d="M29.1641 74.0501L18.2008 85.0133C17.4686 85.7456 16.2814 85.7456 15.5492 85.0133L9.375 78.8392L1.90063 86.3135C4.46662 90.8997 9.37125 94 15 94C23.2843 94 30 87.2843 30 79C30 77.2655 29.7056 75.5998 29.1641 74.0501Z" fill="#8794BA"/>
<path d="M47.1063 82.7921H43.2017L42.5198 85.0001H39.4757L43.8105 73.1807H46.4894L50.8567 85.0001H47.7963L47.1063 82.7921ZM43.8836 80.5922H46.4244L45.15 76.4927L43.8836 80.5922Z" fill="#8794BA"/>
<path d="M61.5964 85.0001H58.7633L54.5746 77.6454V85.0001H51.7253V73.1807H54.5746L58.7552 80.5353V73.1807H61.5964V85.0001Z" fill="#8794BA"/>
<path d="M70.2579 82.7921H66.3533L65.6714 85.0001H62.6273L66.9622 73.1807H69.641L74.0083 85.0001H70.9479L70.2579 82.7921ZM67.0352 80.5922H69.576L68.3016 76.4927L67.0352 80.5922Z" fill="#8794BA"/>
<path d="M77.7262 82.8083H82.6861V85.0001H74.8769V73.1807H77.7262V82.8083Z" fill="#8794BA"/>
<path d="M85.9413 78.3111L88.1168 73.1807H91.1934L87.3862 80.7545V85.0001H84.4963V80.7545L80.6973 73.1807H83.7576L85.9413 78.3111Z" fill="#8794BA"/>
<path d="M101.479 75.3806H97.9311V85.0001H95.0818V75.3806H91.5993V73.1807H101.479V75.3806Z" fill="#8794BA"/>
<path d="M105.724 85.0001H102.883V73.1807H105.724V85.0001Z" fill="#8794BA"/>
<path d="M117.267 80.998C117.23 81.8206 117.008 82.5485 116.602 83.1817C116.196 83.8095 115.625 84.2965 114.889 84.6429C114.158 84.9892 113.322 85.1624 112.381 85.1624C110.827 85.1624 109.604 84.6564 108.711 83.6444C107.818 82.6324 107.372 81.2037 107.372 79.3583V78.7738C107.372 77.6157 107.572 76.6037 107.973 75.7378C108.379 74.8665 108.96 74.1954 109.718 73.7246C110.476 73.2484 111.352 73.0103 112.348 73.0103C113.782 73.0103 114.935 73.3891 115.806 74.1467C116.678 74.899 117.173 75.938 117.292 77.2639H114.451C114.429 76.5441 114.248 76.0273 113.907 75.7134C113.566 75.3996 113.046 75.2426 112.348 75.2426C111.639 75.2426 111.12 75.5078 110.789 76.0381C110.459 76.5685 110.286 77.4154 110.27 78.579V79.4151C110.27 80.676 110.427 81.5771 110.741 82.1183C111.06 82.6595 111.607 82.9301 112.381 82.9301C113.035 82.9301 113.536 82.7758 113.882 82.4673C114.229 82.1589 114.413 81.6691 114.434 80.998H117.267Z" fill="#8794BA"/>
<path d="M124.711 81.8585C124.711 81.4418 124.562 81.1171 124.265 80.8844C123.973 80.6517 123.456 80.4109 122.714 80.1619C121.973 79.913 121.367 79.6722 120.896 79.4395C119.364 78.6872 118.599 77.6536 118.599 76.3385C118.599 75.6837 118.788 75.1073 119.167 74.6094C119.551 74.1061 120.092 73.7165 120.79 73.4405C121.489 73.1591 122.273 73.0184 123.145 73.0184C123.994 73.0184 124.755 73.1699 125.426 73.473C126.102 73.776 126.627 74.209 127 74.7718C127.374 75.3292 127.561 75.9678 127.561 76.6876H124.719C124.719 76.2059 124.571 75.8325 124.273 75.5673C123.981 75.3021 123.583 75.1696 123.08 75.1696C122.571 75.1696 122.168 75.2832 121.87 75.5105C121.578 75.7324 121.432 76.0165 121.432 76.3629C121.432 76.6659 121.594 76.9419 121.919 77.1909C122.244 77.4344 122.814 77.6887 123.632 77.9539C124.449 78.2137 125.12 78.4951 125.645 78.7982C126.922 79.5342 127.561 80.5489 127.561 81.8423C127.561 82.8759 127.171 83.6877 126.392 84.2776C125.612 84.8675 124.544 85.1624 123.185 85.1624C122.227 85.1624 121.359 84.9919 120.579 84.651C119.806 84.3046 119.221 83.8338 118.826 83.2385C118.436 82.6378 118.242 81.9478 118.242 81.1685H121.099C121.099 81.8017 121.261 82.2698 121.586 82.5729C121.916 82.8705 122.449 83.0193 123.185 83.0193C123.656 83.0193 124.027 82.9192 124.297 82.719C124.573 82.5133 124.711 82.2265 124.711 81.8585Z" fill="#8794BA"/>
<path d="M1047.5 75.6667H1045V79H1047.5V89H1051.67V79H1054.67L1055 75.6667H1051.67V74.25C1051.67 73.5 1051.83 73.1667 1052.58 73.1667H1055V69H1051.83C1048.83 69 1047.5 70.3333 1047.5 72.8333V75.6667Z" fill="#8794BA"/>
<path d="M1102.74 89C1112.03 89 1117.1 81.3061 1117.1 74.6347C1117.1 74.4161 1117.1 74.1987 1117.09 73.982C1118.08 73.2694 1118.93 72.3799 1119.61 71.3679C1118.7 71.7698 1117.73 72.0404 1116.71 72.1625C1117.75 71.5375 1118.55 70.5483 1118.93 69.3695C1117.95 69.948 1116.87 70.3684 1115.72 70.5951C1114.8 69.6138 1113.49 69 1112.04 69C1109.25 69 1106.99 71.2612 1106.99 74.0484C1106.99 74.4447 1107.03 74.8298 1107.12 75.1995C1102.92 74.9888 1099.2 72.9795 1096.71 69.9248C1096.28 70.6707 1096.03 71.5378 1096.03 72.4622C1096.03 74.2138 1096.92 75.7601 1098.28 76.665C1097.45 76.6396 1096.67 76.4117 1095.99 76.0333C1095.99 76.0543 1095.99 76.0756 1095.99 76.0977C1095.99 78.5431 1097.73 80.5846 1100.04 81.0472C1099.61 81.1628 1099.17 81.225 1098.71 81.225C1098.38 81.225 1098.07 81.1925 1097.76 81.134C1098.4 83.1397 1100.26 84.5996 1102.47 84.6407C1100.75 85.9951 1098.57 86.802 1096.2 86.802C1095.8 86.802 1095.4 86.7788 1095 86.7321C1097.23 88.164 1099.89 89 1102.74 89Z" fill="#8794BA"/>
<path d="M1169.61 70.8333C1172.28 70.8333 1172.61 70.8333 1173.69 70.9167C1176.44 71 1177.69 72.3333 1177.78 75C1177.86 76.0833 1177.86 76.3333 1177.86 79C1177.86 81.6667 1177.86 82 1177.78 83C1177.69 85.6667 1176.36 87 1173.69 87.0833C1172.61 87.1667 1172.36 87.1667 1169.61 87.1667C1166.94 87.1667 1166.61 87.1667 1165.61 87.0833C1162.86 87 1161.61 85.6667 1161.53 83C1161.44 81.9167 1161.44 81.6667 1161.44 79C1161.44 76.3333 1161.44 76 1161.53 75C1161.61 72.3333 1162.94 71 1165.61 70.9167C1166.61 70.8333 1166.94 70.8333 1169.61 70.8333ZM1169.61 69C1166.86 69 1166.53 69 1165.53 69.0833C1161.86 69.25 1159.86 71.25 1159.69 74.9167C1159.61 75.9167 1159.61 76.25 1159.61 79C1159.61 81.75 1159.61 82.0833 1159.69 83.0833C1159.86 86.75 1161.86 88.75 1165.53 88.9167C1166.53 89 1166.86 89 1169.61 89C1172.36 89 1172.69 89 1173.69 88.9167C1177.36 88.75 1179.36 86.75 1179.53 83.0833C1179.61 82.0833 1179.61 81.75 1179.61 79C1179.61 76.25 1179.61 75.9167 1179.53 74.9167C1179.36 71.25 1177.36 69.25 1173.69 69.0833C1172.69 69 1172.36 69 1169.61 69ZM1169.61 73.8333C1166.78 73.8333 1164.44 76.1667 1164.44 79C1164.44 81.8333 1166.78 84.1667 1169.61 84.1667C1172.44 84.1667 1174.78 81.8333 1174.78 79C1174.78 76.1667 1172.44 73.8333 1169.61 73.8333ZM1169.61 82.3333C1167.78 82.3333 1166.28 80.8333 1166.28 79C1166.28 77.1667 1167.78 75.6667 1169.61 75.6667C1171.44 75.6667 1172.94 77.1667 1172.94 79C1172.94 80.8333 1171.44 82.3333 1169.61 82.3333ZM1174.94 72.5C1174.28 72.5 1173.78 73 1173.78 73.6667C1173.78 74.3333 1174.28 74.8333 1174.94 74.8333C1175.61 74.8333 1176.11 74.3333 1176.11 73.6667C1176.11 73 1175.61 72.5 1174.94 72.5Z" fill="#8794BA"/>
<rect width="1180" height="1" fill="#2A407C"/>
</svg>
