<svg width="410" height="510" viewBox="0 0 410 510" fill="none" xmlns="http://www.w3.org/2000/svg">
<g opacity="0.7" filter="url(#filter0_d)">
<rect x="35" y="17" width="340" height="440" rx="30" fill="#0F1F4B"/>
</g>
<path d="M194.57 362.18C194.57 363.294 194.383 364.268 194.008 365.102C193.633 365.93 193.102 366.562 192.414 367C191.727 367.438 190.924 367.656 190.008 367.656C189.112 367.656 188.318 367.438 187.625 367C186.932 366.557 186.393 365.93 186.008 365.117C185.628 364.299 185.432 363.354 185.422 362.281V361.461C185.422 360.367 185.612 359.401 185.992 358.562C186.372 357.724 186.909 357.083 187.602 356.641C188.299 356.193 189.096 355.969 189.992 355.969C190.904 355.969 191.706 356.19 192.398 356.633C193.096 357.07 193.633 357.708 194.008 358.547C194.383 359.38 194.57 360.352 194.57 361.461V362.18ZM193.078 361.445C193.078 360.096 192.807 359.062 192.266 358.344C191.724 357.62 190.966 357.258 189.992 357.258C189.044 357.258 188.297 357.62 187.75 358.344C187.208 359.062 186.93 360.062 186.914 361.344V362.18C186.914 363.487 187.188 364.516 187.734 365.266C188.286 366.01 189.044 366.383 190.008 366.383C190.977 366.383 191.727 366.031 192.258 365.328C192.789 364.62 193.062 363.607 193.078 362.289V361.445ZM200.68 360.344C200.461 360.307 200.224 360.289 199.969 360.289C199.021 360.289 198.378 360.693 198.039 361.5V367.5H196.594V359.047H198L198.023 360.023C198.497 359.268 199.169 358.891 200.039 358.891C200.32 358.891 200.534 358.927 200.68 359V360.344ZM201.508 363.203C201.508 361.906 201.815 360.865 202.43 360.078C203.044 359.286 203.849 358.891 204.844 358.891C205.833 358.891 206.617 359.229 207.195 359.906V355.5H208.641V367.5H207.312L207.242 366.594C206.664 367.302 205.859 367.656 204.828 367.656C203.849 367.656 203.049 367.255 202.43 366.453C201.815 365.651 201.508 364.604 201.508 363.312V363.203ZM202.953 363.367C202.953 364.326 203.151 365.076 203.547 365.617C203.943 366.159 204.49 366.43 205.188 366.43C206.104 366.43 206.773 366.018 207.195 365.195V361.312C206.763 360.516 206.099 360.117 205.203 360.117C204.495 360.117 203.943 360.391 203.547 360.938C203.151 361.484 202.953 362.294 202.953 363.367ZM214.398 367.656C213.253 367.656 212.32 367.281 211.602 366.531C210.883 365.776 210.523 364.768 210.523 363.508V363.242C210.523 362.404 210.682 361.656 211 361C211.323 360.339 211.771 359.823 212.344 359.453C212.922 359.078 213.547 358.891 214.219 358.891C215.318 358.891 216.172 359.253 216.781 359.977C217.391 360.701 217.695 361.737 217.695 363.086V363.688H211.969C211.99 364.521 212.232 365.195 212.695 365.711C213.164 366.221 213.758 366.477 214.477 366.477C214.987 366.477 215.419 366.372 215.773 366.164C216.128 365.956 216.438 365.68 216.703 365.336L217.586 366.023C216.878 367.112 215.815 367.656 214.398 367.656ZM214.219 360.078C213.635 360.078 213.146 360.292 212.75 360.719C212.354 361.141 212.109 361.734 212.016 362.5H216.25V362.391C216.208 361.656 216.01 361.089 215.656 360.688C215.302 360.281 214.823 360.078 214.219 360.078ZM223.461 360.344C223.242 360.307 223.005 360.289 222.75 360.289C221.802 360.289 221.159 360.693 220.82 361.5V367.5H219.375V359.047H220.781L220.805 360.023C221.279 359.268 221.951 358.891 222.82 358.891C223.102 358.891 223.315 358.927 223.461 359V360.344Z" fill="white"/>
<path d="M129.5 338H279.5V336H129.5V338ZM279.5 386H129.5V388H279.5V386ZM129.5 386C116.245 386 105.5 375.255 105.5 362H103.5C103.5 376.359 115.141 388 129.5 388V386ZM303.5 362C303.5 375.255 292.755 386 279.5 386V388C293.859 388 305.5 376.359 305.5 362H303.5ZM279.5 338C292.755 338 303.5 348.745 303.5 362H305.5C305.5 347.641 293.859 336 279.5 336V338ZM129.5 336C115.141 336 103.5 347.641 103.5 362H105.5C105.5 348.745 116.245 338 129.5 338V336Z" fill="#2A407C"/>
<path d="M150.305 87.4854V95H145.91V73.6719H154.23C155.832 73.6719 157.238 73.9648 158.449 74.5508C159.67 75.1367 160.607 75.9717 161.262 77.0557C161.916 78.1299 162.243 79.3555 162.243 80.7324C162.243 82.8223 161.525 84.4727 160.09 85.6836C158.664 86.8848 156.687 87.4854 154.157 87.4854H150.305ZM150.305 83.9258H154.23C155.393 83.9258 156.276 83.6523 156.882 83.1055C157.497 82.5586 157.805 81.7773 157.805 80.7617C157.805 79.7168 157.497 78.8721 156.882 78.2275C156.267 77.583 155.417 77.251 154.333 77.2314H150.305V83.9258ZM173.903 83.1201C173.327 83.042 172.819 83.0029 172.38 83.0029C170.778 83.0029 169.729 83.5449 169.23 84.6289V95H164.997V79.1504H168.996L169.113 81.04C169.963 79.585 171.14 78.8574 172.644 78.8574C173.112 78.8574 173.552 78.9209 173.962 79.0479L173.903 83.1201ZM182.956 95.293C180.632 95.293 178.737 94.5801 177.272 93.1543C175.817 91.7285 175.09 89.8291 175.09 87.4561V87.0459C175.09 85.4541 175.397 84.0332 176.013 82.7832C176.628 81.5234 177.497 80.5566 178.62 79.8828C179.753 79.1992 181.042 78.8574 182.487 78.8574C184.655 78.8574 186.359 79.541 187.6 80.9082C188.85 82.2754 189.475 84.2139 189.475 86.7236V88.4521H179.382C179.519 89.4873 179.929 90.3174 180.612 90.9424C181.306 91.5674 182.18 91.8799 183.234 91.8799C184.865 91.8799 186.14 91.2891 187.058 90.1074L189.138 92.4365C188.503 93.335 187.644 94.0381 186.56 94.5459C185.476 95.0439 184.274 95.293 182.956 95.293ZM182.473 82.2852C181.633 82.2852 180.949 82.5684 180.422 83.1348C179.904 83.7012 179.572 84.5117 179.426 85.5664H185.314V85.2295C185.295 84.292 185.041 83.5693 184.553 83.0615C184.064 82.5439 183.371 82.2852 182.473 82.2852ZM195.861 79.1504L195.993 80.9229C197.116 79.5459 198.635 78.8574 200.549 78.8574C202.59 78.8574 203.991 79.6631 204.753 81.2744C205.866 79.6631 207.453 78.8574 209.514 78.8574C211.232 78.8574 212.512 79.3604 213.352 80.3662C214.191 81.3623 214.611 82.8662 214.611 84.8779V95H210.363V84.8926C210.363 83.9941 210.188 83.3398 209.836 82.9297C209.484 82.5098 208.864 82.2998 207.976 82.2998C206.706 82.2998 205.827 82.9053 205.339 84.1162L205.354 95H201.12V84.9072C201.12 83.9893 200.939 83.3252 200.578 82.915C200.217 82.5049 199.602 82.2998 198.732 82.2998C197.531 82.2998 196.662 82.7979 196.125 83.7939V95H191.892V79.1504H195.861ZM222.346 95H218.098V79.1504H222.346V95ZM217.849 75.0488C217.849 74.4141 218.059 73.8916 218.479 73.4814C218.908 73.0713 219.489 72.8662 220.222 72.8662C220.944 72.8662 221.521 73.0713 221.95 73.4814C222.38 73.8916 222.595 74.4141 222.595 75.0488C222.595 75.6934 222.375 76.2207 221.936 76.6309C221.506 77.041 220.935 77.2461 220.222 77.2461C219.509 77.2461 218.933 77.041 218.493 76.6309C218.063 76.2207 217.849 75.6934 217.849 75.0488ZM235.339 93.3887C234.294 94.6582 232.849 95.293 231.003 95.293C229.304 95.293 228.005 94.8047 227.106 93.8281C226.218 92.8516 225.764 91.4209 225.744 89.5361V79.1504H229.978V89.3896C229.978 91.04 230.729 91.8652 232.233 91.8652C233.669 91.8652 234.655 91.3672 235.192 90.3711V79.1504H239.44V95H235.456L235.339 93.3887ZM246.604 79.1504L246.735 80.9229C247.858 79.5459 249.377 78.8574 251.291 78.8574C253.332 78.8574 254.733 79.6631 255.495 81.2744C256.608 79.6631 258.195 78.8574 260.256 78.8574C261.975 78.8574 263.254 79.3604 264.094 80.3662C264.934 81.3623 265.354 82.8662 265.354 84.8779V95H261.105V84.8926C261.105 83.9941 260.93 83.3398 260.578 82.9297C260.227 82.5098 259.606 82.2998 258.718 82.2998C257.448 82.2998 256.569 82.9053 256.081 84.1162L256.096 95H251.862V84.9072C251.862 83.9893 251.682 83.3252 251.32 82.915C250.959 82.5049 250.344 82.2998 249.475 82.2998C248.273 82.2998 247.404 82.7979 246.867 83.7939V95H242.634V79.1504H246.604Z" fill="white"/>
<path d="M150.165 131.06C149.532 131.804 148.604 132.176 147.379 132.176C146.365 132.176 145.592 131.883 145.059 131.297C144.531 130.705 144.265 129.832 144.259 128.678V122.49H145.885V128.634C145.885 130.075 146.471 130.796 147.643 130.796C148.885 130.796 149.711 130.333 150.121 129.407V122.49H151.747V132H150.2L150.165 131.06ZM162.259 127.351C162.259 128.798 161.928 129.964 161.266 130.849C160.604 131.733 159.707 132.176 158.576 132.176C157.422 132.176 156.514 131.81 155.852 131.077V135.656H154.226V122.49H155.711L155.79 123.545C156.452 122.725 157.372 122.314 158.55 122.314C159.692 122.314 160.595 122.745 161.257 123.606C161.925 124.468 162.259 125.666 162.259 127.201V127.351ZM160.633 127.166C160.633 126.094 160.404 125.247 159.947 124.626C159.49 124.005 158.863 123.694 158.066 123.694C157.082 123.694 156.344 124.131 155.852 125.004V129.548C156.338 130.415 157.082 130.849 158.084 130.849C158.863 130.849 159.481 130.541 159.938 129.926C160.401 129.305 160.633 128.385 160.633 127.166ZM171.004 120.188V122.49H172.779V123.747H171.004V129.645C171.004 130.025 171.083 130.312 171.241 130.506C171.399 130.693 171.669 130.787 172.05 130.787C172.237 130.787 172.495 130.752 172.823 130.682V132C172.396 132.117 171.979 132.176 171.575 132.176C170.849 132.176 170.301 131.956 169.932 131.517C169.562 131.077 169.378 130.453 169.378 129.645V123.747H167.646V122.49H169.378V120.188H171.004ZM174.08 127.157C174.08 126.226 174.262 125.388 174.625 124.644C174.994 123.899 175.504 123.325 176.154 122.921C176.811 122.517 177.558 122.314 178.396 122.314C179.69 122.314 180.736 122.763 181.533 123.659C182.336 124.556 182.737 125.748 182.737 127.236V127.351C182.737 128.276 182.559 129.108 182.201 129.847C181.85 130.579 181.343 131.15 180.681 131.561C180.024 131.971 179.269 132.176 178.413 132.176C177.124 132.176 176.078 131.728 175.275 130.831C174.479 129.935 174.08 128.748 174.08 127.271V127.157ZM175.715 127.351C175.715 128.405 175.958 129.252 176.444 129.891C176.937 130.529 177.593 130.849 178.413 130.849C179.239 130.849 179.896 130.526 180.382 129.882C180.868 129.231 181.111 128.323 181.111 127.157C181.111 126.114 180.862 125.271 180.364 124.626C179.872 123.976 179.216 123.65 178.396 123.65C177.593 123.65 176.945 123.97 176.453 124.608C175.961 125.247 175.715 126.161 175.715 127.351ZM197.459 132H189.074V130.831L193.504 125.909C194.16 125.165 194.611 124.562 194.857 124.099C195.109 123.63 195.235 123.146 195.235 122.648C195.235 121.98 195.033 121.433 194.629 121.005C194.225 120.577 193.686 120.363 193.012 120.363C192.203 120.363 191.573 120.595 191.122 121.058C190.677 121.515 190.454 122.153 190.454 122.974H188.828C188.828 121.796 189.206 120.844 189.962 120.117C190.724 119.391 191.74 119.027 193.012 119.027C194.201 119.027 195.142 119.341 195.833 119.968C196.524 120.589 196.87 121.418 196.87 122.455C196.87 123.715 196.067 125.215 194.462 126.955L191.034 130.673H197.459V132ZM207.206 126.542C207.206 128.446 206.881 129.861 206.23 130.787C205.58 131.713 204.563 132.176 203.181 132.176C201.815 132.176 200.805 131.725 200.148 130.822C199.492 129.914 199.152 128.561 199.129 126.762V124.591C199.129 122.71 199.454 121.312 200.104 120.398C200.755 119.484 201.774 119.027 203.163 119.027C204.54 119.027 205.554 119.47 206.204 120.354C206.854 121.233 207.188 122.593 207.206 124.433V126.542ZM205.58 124.318C205.58 122.941 205.387 121.939 205 121.312C204.613 120.68 204.001 120.363 203.163 120.363C202.331 120.363 201.725 120.677 201.344 121.304C200.963 121.931 200.767 122.895 200.755 124.195V126.797C200.755 128.18 200.954 129.202 201.353 129.864C201.757 130.521 202.366 130.849 203.181 130.849C203.983 130.849 204.578 130.538 204.965 129.917C205.357 129.296 205.562 128.317 205.58 126.981V124.318ZM217.313 126.542C217.313 128.446 216.988 129.861 216.338 130.787C215.688 131.713 214.671 132.176 213.288 132.176C211.923 132.176 210.912 131.725 210.256 130.822C209.6 129.914 209.26 128.561 209.236 126.762V124.591C209.236 122.71 209.562 121.312 210.212 120.398C210.862 119.484 211.882 119.027 213.271 119.027C214.647 119.027 215.661 119.47 216.312 120.354C216.962 121.233 217.296 122.593 217.313 124.433V126.542ZM215.688 124.318C215.688 122.941 215.494 121.939 215.107 121.312C214.721 120.68 214.108 120.363 213.271 120.363C212.438 120.363 211.832 120.677 211.451 121.304C211.07 121.931 210.874 122.895 210.862 124.195V126.797C210.862 128.18 211.062 129.202 211.46 129.864C211.864 130.521 212.474 130.849 213.288 130.849C214.091 130.849 214.686 130.538 215.072 129.917C215.465 129.296 215.67 128.317 215.688 126.981V124.318ZM229.899 131.06C229.267 131.804 228.338 132.176 227.113 132.176C226.1 132.176 225.326 131.883 224.793 131.297C224.266 130.705 223.999 129.832 223.993 128.678V122.49H225.619V128.634C225.619 130.075 226.205 130.796 227.377 130.796C228.619 130.796 229.445 130.333 229.855 129.407V122.49H231.481V132H229.935L229.899 131.06ZM239.497 129.478C239.497 129.038 239.33 128.698 238.996 128.458C238.668 128.212 238.091 128.001 237.265 127.825C236.444 127.649 235.791 127.438 235.305 127.192C234.824 126.946 234.467 126.653 234.232 126.313C234.004 125.974 233.89 125.569 233.89 125.101C233.89 124.321 234.218 123.662 234.874 123.123C235.536 122.584 236.38 122.314 237.405 122.314C238.483 122.314 239.356 122.593 240.024 123.149C240.698 123.706 241.035 124.418 241.035 125.285H239.4C239.4 124.84 239.21 124.456 238.829 124.134C238.454 123.812 237.979 123.65 237.405 123.65C236.813 123.65 236.351 123.779 236.017 124.037C235.683 124.295 235.516 124.632 235.516 125.048C235.516 125.44 235.671 125.736 235.981 125.936C236.292 126.135 236.852 126.325 237.66 126.507C238.475 126.688 239.134 126.905 239.638 127.157C240.142 127.409 240.514 127.714 240.754 128.071C241 128.423 241.123 128.854 241.123 129.363C241.123 130.213 240.783 130.896 240.104 131.411C239.424 131.921 238.542 132.176 237.458 132.176C236.696 132.176 236.022 132.041 235.437 131.771C234.851 131.502 234.391 131.127 234.057 130.646C233.729 130.16 233.564 129.636 233.564 129.073H235.19C235.22 129.618 235.437 130.052 235.841 130.374C236.251 130.69 236.79 130.849 237.458 130.849C238.073 130.849 238.565 130.726 238.935 130.479C239.31 130.228 239.497 129.894 239.497 129.478ZM247.188 132.176C245.898 132.176 244.85 131.754 244.041 130.91C243.232 130.061 242.828 128.927 242.828 127.509V127.21C242.828 126.267 243.007 125.426 243.364 124.688C243.728 123.943 244.231 123.363 244.876 122.947C245.526 122.525 246.229 122.314 246.985 122.314C248.222 122.314 249.183 122.722 249.868 123.536C250.554 124.351 250.896 125.517 250.896 127.034V127.711H244.454C244.478 128.648 244.75 129.407 245.271 129.987C245.799 130.562 246.467 130.849 247.275 130.849C247.85 130.849 248.336 130.731 248.734 130.497C249.133 130.263 249.481 129.952 249.78 129.565L250.773 130.339C249.977 131.563 248.781 132.176 247.188 132.176ZM246.985 123.65C246.329 123.65 245.778 123.891 245.333 124.371C244.888 124.846 244.612 125.514 244.507 126.375H249.271V126.252C249.224 125.426 249.001 124.787 248.603 124.336C248.204 123.879 247.665 123.65 246.985 123.65ZM257.383 123.949C257.137 123.908 256.87 123.888 256.583 123.888C255.517 123.888 254.793 124.342 254.412 125.25V132H252.786V122.49H254.368L254.395 123.589C254.928 122.739 255.684 122.314 256.662 122.314C256.979 122.314 257.219 122.355 257.383 122.438V123.949ZM264.423 129.478C264.423 129.038 264.256 128.698 263.922 128.458C263.594 128.212 263.017 128.001 262.19 127.825C261.37 127.649 260.717 127.438 260.23 127.192C259.75 126.946 259.393 126.653 259.158 126.313C258.93 125.974 258.815 125.569 258.815 125.101C258.815 124.321 259.144 123.662 259.8 123.123C260.462 122.584 261.306 122.314 262.331 122.314C263.409 122.314 264.282 122.593 264.95 123.149C265.624 123.706 265.961 124.418 265.961 125.285H264.326C264.326 124.84 264.136 124.456 263.755 124.134C263.38 123.812 262.905 123.65 262.331 123.65C261.739 123.65 261.276 123.779 260.942 124.037C260.608 124.295 260.441 124.632 260.441 125.048C260.441 125.44 260.597 125.736 260.907 125.936C261.218 126.135 261.777 126.325 262.586 126.507C263.4 126.688 264.06 126.905 264.563 127.157C265.067 127.409 265.439 127.714 265.68 128.071C265.926 128.423 266.049 128.854 266.049 129.363C266.049 130.213 265.709 130.896 265.029 131.411C264.35 131.921 263.468 132.176 262.384 132.176C261.622 132.176 260.948 132.041 260.362 131.771C259.776 131.502 259.316 131.127 258.982 130.646C258.654 130.16 258.49 129.636 258.49 129.073H260.116C260.146 129.618 260.362 130.052 260.767 130.374C261.177 130.69 261.716 130.849 262.384 130.849C262.999 130.849 263.491 130.726 263.86 130.479C264.235 130.228 264.423 129.894 264.423 129.478Z" fill="#8794BA"/>
<path d="M155.779 255.39C155.779 254.589 155.555 253.954 155.105 253.485C154.666 253.007 153.914 252.567 152.85 252.167C151.785 251.767 150.867 251.371 150.096 250.98C149.324 250.58 148.66 250.126 148.104 249.618C147.557 249.101 147.127 248.495 146.814 247.802C146.512 247.108 146.36 246.283 146.36 245.326C146.36 243.676 146.888 242.323 147.942 241.269C148.997 240.214 150.398 239.599 152.146 239.423V236.288H154.49V239.467C156.219 239.711 157.571 240.434 158.548 241.635C159.524 242.826 160.013 244.374 160.013 246.278H155.779C155.779 245.106 155.535 244.232 155.047 243.656C154.568 243.07 153.924 242.777 153.113 242.777C152.312 242.777 151.692 243.007 151.253 243.466C150.813 243.915 150.594 244.54 150.594 245.341C150.594 246.083 150.809 246.679 151.238 247.128C151.668 247.577 152.464 248.036 153.626 248.505C154.798 248.974 155.76 249.418 156.512 249.838C157.264 250.248 157.898 250.717 158.416 251.244C158.934 251.762 159.329 252.357 159.603 253.031C159.876 253.695 160.013 254.472 160.013 255.36C160.013 257.021 159.495 258.368 158.46 259.403C157.425 260.438 155.999 261.049 154.183 261.234V264.149H151.854V261.249C149.852 261.034 148.299 260.326 147.195 259.125C146.102 257.914 145.555 256.308 145.555 254.306H149.788C149.788 255.468 150.062 256.361 150.608 256.986C151.165 257.602 151.961 257.909 152.996 257.909C153.855 257.909 154.534 257.685 155.032 257.235C155.53 256.776 155.779 256.161 155.779 255.39ZM193.572 261H164.334V255.199L178.133 240.492C180.027 238.422 181.424 236.615 182.322 235.072C183.24 233.529 183.699 232.064 183.699 230.678C183.699 228.783 183.221 227.299 182.264 226.225C181.307 225.131 179.939 224.584 178.162 224.584C176.248 224.584 174.734 225.248 173.621 226.576C172.527 227.885 171.98 229.613 171.98 231.762H163.484C163.484 229.164 164.1 226.791 165.33 224.643C166.58 222.494 168.338 220.814 170.604 219.604C172.869 218.373 175.438 217.758 178.309 217.758C182.703 217.758 186.111 218.812 188.533 220.922C190.975 223.031 192.195 226.01 192.195 229.857C192.195 231.967 191.648 234.115 190.555 236.303C189.461 238.49 187.586 241.039 184.93 243.949L175.232 254.174H193.572V261ZM218.592 243.949C216.385 246.117 213.807 247.201 210.857 247.201C207.088 247.201 204.07 245.912 201.805 243.334C199.539 240.736 198.406 237.24 198.406 232.846C198.406 230.053 199.012 227.494 200.223 225.17C201.453 222.826 203.162 221.01 205.35 219.721C207.537 218.412 209.998 217.758 212.732 217.758C215.545 217.758 218.045 218.461 220.232 219.867C222.42 221.273 224.119 223.295 225.33 225.932C226.541 228.568 227.156 231.586 227.176 234.984V238.119C227.176 245.229 225.408 250.814 221.873 254.877C218.338 258.939 213.328 261.107 206.844 261.381L204.764 261.41V254.35L206.639 254.32C214.002 253.988 217.986 250.531 218.592 243.949ZM212.938 240.727C214.305 240.727 215.477 240.375 216.453 239.672C217.449 238.969 218.201 238.119 218.709 237.123V233.637C218.709 230.766 218.162 228.539 217.068 226.957C215.975 225.375 214.51 224.584 212.674 224.584C210.975 224.584 209.578 225.365 208.484 226.928C207.391 228.471 206.844 230.414 206.844 232.758C206.844 235.082 207.371 236.996 208.426 238.5C209.5 239.984 211.004 240.727 212.938 240.727ZM253.045 243.949C250.838 246.117 248.26 247.201 245.311 247.201C241.541 247.201 238.523 245.912 236.258 243.334C233.992 240.736 232.859 237.24 232.859 232.846C232.859 230.053 233.465 227.494 234.676 225.17C235.906 222.826 237.615 221.01 239.803 219.721C241.99 218.412 244.451 217.758 247.186 217.758C249.998 217.758 252.498 218.461 254.686 219.867C256.873 221.273 258.572 223.295 259.783 225.932C260.994 228.568 261.609 231.586 261.629 234.984V238.119C261.629 245.229 259.861 250.814 256.326 254.877C252.791 258.939 247.781 261.107 241.297 261.381L239.217 261.41V254.35L241.092 254.32C248.455 253.988 252.439 250.531 253.045 243.949ZM247.391 240.727C248.758 240.727 249.93 240.375 250.906 239.672C251.902 238.969 252.654 238.119 253.162 237.123V233.637C253.162 230.766 252.615 228.539 251.521 226.957C250.428 225.375 248.963 224.584 247.127 224.584C245.428 224.584 244.031 225.365 242.938 226.928C241.844 228.471 241.297 230.414 241.297 232.758C241.297 235.082 241.824 236.996 242.879 238.5C243.953 239.984 245.457 240.727 247.391 240.727Z" fill="white"/>
<path d="M176.289 286.867C176.289 288.154 175.995 289.19 175.406 289.977C174.818 290.763 174.021 291.156 173.016 291.156C171.99 291.156 171.182 290.831 170.594 290.18V294.25H169.148V282.547H170.469L170.539 283.484C171.128 282.755 171.945 282.391 172.992 282.391C174.008 282.391 174.81 282.773 175.398 283.539C175.992 284.305 176.289 285.37 176.289 286.734V286.867ZM174.844 286.703C174.844 285.75 174.641 284.997 174.234 284.445C173.828 283.893 173.271 283.617 172.562 283.617C171.688 283.617 171.031 284.005 170.594 284.781V288.82C171.026 289.591 171.688 289.977 172.578 289.977C173.271 289.977 173.82 289.703 174.227 289.156C174.638 288.604 174.844 287.786 174.844 286.703ZM181.641 291.156C180.495 291.156 179.562 290.781 178.844 290.031C178.125 289.276 177.766 288.268 177.766 287.008V286.742C177.766 285.904 177.924 285.156 178.242 284.5C178.565 283.839 179.013 283.323 179.586 282.953C180.164 282.578 180.789 282.391 181.461 282.391C182.56 282.391 183.414 282.753 184.023 283.477C184.633 284.201 184.938 285.237 184.938 286.586V287.188H179.211C179.232 288.021 179.474 288.695 179.938 289.211C180.406 289.721 181 289.977 181.719 289.977C182.229 289.977 182.661 289.872 183.016 289.664C183.37 289.456 183.68 289.18 183.945 288.836L184.828 289.523C184.12 290.612 183.057 291.156 181.641 291.156ZM181.461 283.578C180.878 283.578 180.388 283.792 179.992 284.219C179.596 284.641 179.352 285.234 179.258 286H183.492V285.891C183.451 285.156 183.253 284.589 182.898 284.188C182.544 283.781 182.065 283.578 181.461 283.578ZM190.703 283.844C190.484 283.807 190.247 283.789 189.992 283.789C189.044 283.789 188.401 284.193 188.062 285V291H186.617V282.547H188.023L188.047 283.523C188.521 282.768 189.193 282.391 190.062 282.391C190.344 282.391 190.557 282.427 190.703 282.5V283.844ZM197.367 282.547L197.406 283.484C198.026 282.755 198.862 282.391 199.914 282.391C201.096 282.391 201.901 282.844 202.328 283.75C202.609 283.344 202.974 283.016 203.422 282.766C203.875 282.516 204.409 282.391 205.023 282.391C206.878 282.391 207.82 283.372 207.852 285.336V291H206.406V285.422C206.406 284.818 206.268 284.367 205.992 284.07C205.716 283.768 205.253 283.617 204.602 283.617C204.065 283.617 203.62 283.779 203.266 284.102C202.911 284.419 202.706 284.849 202.648 285.391V291H201.195V285.461C201.195 284.232 200.594 283.617 199.391 283.617C198.443 283.617 197.794 284.021 197.445 284.828V291H196V282.547H197.367ZM209.656 286.695C209.656 285.867 209.818 285.122 210.141 284.461C210.469 283.799 210.922 283.289 211.5 282.93C212.083 282.57 212.747 282.391 213.492 282.391C214.643 282.391 215.573 282.789 216.281 283.586C216.995 284.383 217.352 285.443 217.352 286.766V286.867C217.352 287.69 217.193 288.43 216.875 289.086C216.562 289.737 216.112 290.245 215.523 290.609C214.94 290.974 214.268 291.156 213.508 291.156C212.362 291.156 211.432 290.758 210.719 289.961C210.01 289.164 209.656 288.109 209.656 286.797V286.695ZM211.109 286.867C211.109 287.805 211.326 288.557 211.758 289.125C212.195 289.693 212.779 289.977 213.508 289.977C214.242 289.977 214.826 289.69 215.258 289.117C215.69 288.539 215.906 287.732 215.906 286.695C215.906 285.768 215.685 285.018 215.242 284.445C214.805 283.867 214.221 283.578 213.492 283.578C212.779 283.578 212.203 283.862 211.766 284.43C211.328 284.997 211.109 285.81 211.109 286.867ZM220.531 282.547L220.578 283.609C221.224 282.797 222.068 282.391 223.109 282.391C224.896 282.391 225.797 283.398 225.812 285.414V291H224.367V285.406C224.362 284.797 224.221 284.346 223.945 284.055C223.674 283.763 223.25 283.617 222.672 283.617C222.203 283.617 221.792 283.742 221.438 283.992C221.083 284.242 220.807 284.57 220.609 284.977V291H219.164V282.547H220.531ZM229.953 280.5V282.547H231.531V283.664H229.953V288.906C229.953 289.245 230.023 289.5 230.164 289.672C230.305 289.839 230.544 289.922 230.883 289.922C231.049 289.922 231.279 289.891 231.57 289.828V291C231.19 291.104 230.82 291.156 230.461 291.156C229.815 291.156 229.328 290.961 229 290.57C228.672 290.18 228.508 289.625 228.508 288.906V283.664H226.969V282.547H228.508V280.5H229.953ZM234.672 283.57C235.312 282.784 236.146 282.391 237.172 282.391C238.958 282.391 239.859 283.398 239.875 285.414V291H238.43V285.406C238.424 284.797 238.284 284.346 238.008 284.055C237.737 283.763 237.312 283.617 236.734 283.617C236.266 283.617 235.854 283.742 235.5 283.992C235.146 284.242 234.87 284.57 234.672 284.977V291H233.227V279H234.672V283.57Z" fill="#8794BA"/>
<rect x="95" y="176" width="220" height="1" fill="#2A407C"/>
<defs>
<filter id="filter0_d" x="0" y="0" width="410" height="510" filterUnits="userSpaceOnUse" color-interpolation-filters="sRGB">
<feFlood flood-opacity="0" result="BackgroundImageFix"/>
<feColorMatrix in="SourceAlpha" type="matrix" values="0 0 0 0 0 0 0 0 0 0 0 0 0 0 0 0 0 0 127 0"/>
<feMorphology radius="15" operator="erode" in="SourceAlpha" result="effect1_dropShadow"/>
<feOffset dy="18"/>
<feGaussianBlur stdDeviation="25"/>
<feColorMatrix type="matrix" values="0 0 0 0 0.0996452 0 0 0 0 0.164326 0 0 0 0 0.350284 0 0 0 0.2 0"/>
<feBlend mode="normal" in2="BackgroundImageFix" result="effect1_dropShadow"/>
<feBlend mode="normal" in="SourceGraphic" in2="effect1_dropShadow" result="shape"/>
</filter>
</defs>
</svg>
