<svg width="410" height="510" viewBox="0 0 410 510" fill="none" xmlns="http://www.w3.org/2000/svg">
<g filter="url(#filter0_d)">
<rect x="35" y="17" width="340" height="440" rx="30" fill="white"/>
</g>
<path d="M101.5 362C101.5 348.193 112.693 337 126.5 337H282.5C296.307 337 307.5 348.193 307.5 362C307.5 375.807 296.307 387 282.5 387H126.5C112.693 387 101.5 375.807 101.5 362Z" fill="#EF2A82"/>
<path d="M194.57 362.18C194.57 363.294 194.383 364.268 194.008 365.102C193.633 365.93 193.102 366.562 192.414 367C191.727 367.438 190.924 367.656 190.008 367.656C189.112 367.656 188.318 367.438 187.625 367C186.932 366.557 186.393 365.93 186.008 365.117C185.628 364.299 185.432 363.354 185.422 362.281V361.461C185.422 360.367 185.612 359.401 185.992 358.562C186.372 357.724 186.909 357.083 187.602 356.641C188.299 356.193 189.096 355.969 189.992 355.969C190.904 355.969 191.706 356.19 192.398 356.633C193.096 357.07 193.633 357.708 194.008 358.547C194.383 359.38 194.57 360.352 194.57 361.461V362.18ZM193.078 361.445C193.078 360.096 192.807 359.062 192.266 358.344C191.724 357.62 190.966 357.258 189.992 357.258C189.044 357.258 188.297 357.62 187.75 358.344C187.208 359.062 186.93 360.062 186.914 361.344V362.18C186.914 363.487 187.188 364.516 187.734 365.266C188.286 366.01 189.044 366.383 190.008 366.383C190.977 366.383 191.727 366.031 192.258 365.328C192.789 364.62 193.062 363.607 193.078 362.289V361.445ZM200.68 360.344C200.461 360.307 200.224 360.289 199.969 360.289C199.021 360.289 198.378 360.693 198.039 361.5V367.5H196.594V359.047H198L198.023 360.023C198.497 359.268 199.169 358.891 200.039 358.891C200.32 358.891 200.534 358.927 200.68 359V360.344ZM201.508 363.203C201.508 361.906 201.815 360.865 202.43 360.078C203.044 359.286 203.849 358.891 204.844 358.891C205.833 358.891 206.617 359.229 207.195 359.906V355.5H208.641V367.5H207.312L207.242 366.594C206.664 367.302 205.859 367.656 204.828 367.656C203.849 367.656 203.049 367.255 202.43 366.453C201.815 365.651 201.508 364.604 201.508 363.312V363.203ZM202.953 363.367C202.953 364.326 203.151 365.076 203.547 365.617C203.943 366.159 204.49 366.43 205.188 366.43C206.104 366.43 206.773 366.018 207.195 365.195V361.312C206.763 360.516 206.099 360.117 205.203 360.117C204.495 360.117 203.943 360.391 203.547 360.938C203.151 361.484 202.953 362.294 202.953 363.367ZM214.398 367.656C213.253 367.656 212.32 367.281 211.602 366.531C210.883 365.776 210.523 364.768 210.523 363.508V363.242C210.523 362.404 210.682 361.656 211 361C211.323 360.339 211.771 359.823 212.344 359.453C212.922 359.078 213.547 358.891 214.219 358.891C215.318 358.891 216.172 359.253 216.781 359.977C217.391 360.701 217.695 361.737 217.695 363.086V363.688H211.969C211.99 364.521 212.232 365.195 212.695 365.711C213.164 366.221 213.758 366.477 214.477 366.477C214.987 366.477 215.419 366.372 215.773 366.164C216.128 365.956 216.438 365.68 216.703 365.336L217.586 366.023C216.878 367.112 215.815 367.656 214.398 367.656ZM214.219 360.078C213.635 360.078 213.146 360.292 212.75 360.719C212.354 361.141 212.109 361.734 212.016 362.5H216.25V362.391C216.208 361.656 216.01 361.089 215.656 360.688C215.302 360.281 214.823 360.078 214.219 360.078ZM223.461 360.344C223.242 360.307 223.005 360.289 222.75 360.289C221.802 360.289 221.159 360.693 220.82 361.5V367.5H219.375V359.047H220.781L220.805 360.023C221.279 359.268 221.951 358.891 222.82 358.891C223.102 358.891 223.315 358.927 223.461 359V360.344Z" fill="white"/>
<path d="M157.438 89.4043C157.438 88.5742 157.146 87.9395 156.56 87.5C155.974 87.0508 154.919 86.582 153.396 86.0938C151.872 85.5957 150.666 85.1074 149.777 84.6289C147.355 83.3203 146.145 81.5576 146.145 79.3408C146.145 78.1885 146.467 77.1631 147.111 76.2646C147.766 75.3564 148.698 74.6484 149.909 74.1406C151.13 73.6328 152.497 73.3789 154.011 73.3789C155.534 73.3789 156.892 73.6572 158.083 74.2139C159.274 74.7607 160.197 75.5371 160.852 76.543C161.516 77.5488 161.848 78.6914 161.848 79.9707H157.453C157.453 78.9941 157.146 78.2373 156.53 77.7002C155.915 77.1533 155.051 76.8799 153.938 76.8799C152.863 76.8799 152.028 77.1094 151.433 77.5684C150.837 78.0176 150.539 78.6133 150.539 79.3555C150.539 80.0488 150.886 80.6299 151.579 81.0986C152.282 81.5674 153.312 82.0068 154.67 82.417C157.17 83.1689 158.991 84.1016 160.134 85.2148C161.276 86.3281 161.848 87.7148 161.848 89.375C161.848 91.2207 161.149 92.6709 159.753 93.7256C158.356 94.7705 156.477 95.293 154.113 95.293C152.473 95.293 150.979 94.9951 149.631 94.3994C148.283 93.7939 147.253 92.9688 146.54 91.9238C145.837 90.8789 145.485 89.668 145.485 88.291H149.895C149.895 90.6445 151.301 91.8213 154.113 91.8213C155.158 91.8213 155.974 91.6113 156.56 91.1914C157.146 90.7617 157.438 90.166 157.438 89.4043ZM169.626 75.2539V79.1504H172.336V82.2559H169.626V90.166C169.626 90.752 169.738 91.1719 169.963 91.4258C170.188 91.6797 170.617 91.8066 171.252 91.8066C171.721 91.8066 172.136 91.7725 172.497 91.7041V94.9121C171.667 95.166 170.812 95.293 169.934 95.293C166.965 95.293 165.451 93.7939 165.393 90.7959V82.2559H163.078V79.1504H165.393V75.2539H169.626ZM183.879 95C183.684 94.6191 183.542 94.1455 183.454 93.5791C182.429 94.7217 181.096 95.293 179.455 95.293C177.902 95.293 176.613 94.8438 175.588 93.9453C174.572 93.0469 174.064 91.9141 174.064 90.5469C174.064 88.8672 174.685 87.5781 175.925 86.6797C177.175 85.7812 178.977 85.3271 181.33 85.3174H183.278V84.4092C183.278 83.6768 183.088 83.0908 182.707 82.6514C182.336 82.2119 181.745 81.9922 180.935 81.9922C180.222 81.9922 179.66 82.1631 179.25 82.5049C178.85 82.8467 178.649 83.3154 178.649 83.9111H174.416C174.416 82.9932 174.699 82.1436 175.266 81.3623C175.832 80.5811 176.633 79.9707 177.668 79.5312C178.703 79.082 179.865 78.8574 181.154 78.8574C183.107 78.8574 184.655 79.3506 185.798 80.3369C186.95 81.3135 187.526 82.6904 187.526 84.4678V91.3379C187.536 92.8418 187.746 93.9795 188.156 94.751V95H183.879ZM180.378 92.0557C181.003 92.0557 181.579 91.9189 182.106 91.6455C182.634 91.3623 183.024 90.9863 183.278 90.5176V87.793H181.696C179.577 87.793 178.449 88.5254 178.312 89.9902L178.298 90.2393C178.298 90.7666 178.483 91.2012 178.854 91.543C179.226 91.8848 179.733 92.0557 180.378 92.0557ZM194.675 79.1504L194.807 80.9814C195.939 79.5654 197.458 78.8574 199.362 78.8574C201.042 78.8574 202.292 79.3506 203.112 80.3369C203.933 81.3232 204.353 82.7979 204.372 84.7607V95H200.139V84.8633C200.139 83.9648 199.943 83.3154 199.553 82.915C199.162 82.5049 198.513 82.2998 197.604 82.2998C196.413 82.2998 195.52 82.8076 194.924 83.8232V95H190.69V79.1504H194.675ZM206.936 86.958C206.936 84.4873 207.487 82.5195 208.591 81.0547C209.704 79.5898 211.223 78.8574 213.146 78.8574C214.689 78.8574 215.964 79.4336 216.97 80.5859V72.5H221.218V95H217.395L217.189 93.3154C216.135 94.6338 214.777 95.293 213.117 95.293C211.252 95.293 209.753 94.5605 208.62 93.0957C207.497 91.6211 206.936 89.5752 206.936 86.958ZM211.169 87.2656C211.169 88.75 211.428 89.8877 211.945 90.6787C212.463 91.4697 213.215 91.8652 214.201 91.8652C215.51 91.8652 216.433 91.3135 216.97 90.21V83.9551C216.442 82.8516 215.529 82.2998 214.23 82.2998C212.189 82.2998 211.169 83.9551 211.169 87.2656ZM233.684 95C233.488 94.6191 233.347 94.1455 233.259 93.5791C232.233 94.7217 230.9 95.293 229.26 95.293C227.707 95.293 226.418 94.8438 225.393 93.9453C224.377 93.0469 223.869 91.9141 223.869 90.5469C223.869 88.8672 224.489 87.5781 225.729 86.6797C226.979 85.7812 228.781 85.3271 231.135 85.3174H233.083V84.4092C233.083 83.6768 232.893 83.0908 232.512 82.6514C232.141 82.2119 231.55 81.9922 230.739 81.9922C230.026 81.9922 229.465 82.1631 229.055 82.5049C228.654 82.8467 228.454 83.3154 228.454 83.9111H224.221C224.221 82.9932 224.504 82.1436 225.07 81.3623C225.637 80.5811 226.438 79.9707 227.473 79.5312C228.508 79.082 229.67 78.8574 230.959 78.8574C232.912 78.8574 234.46 79.3506 235.603 80.3369C236.755 81.3135 237.331 82.6904 237.331 84.4678V91.3379C237.341 92.8418 237.551 93.9795 237.961 94.751V95H233.684ZM230.183 92.0557C230.808 92.0557 231.384 91.9189 231.911 91.6455C232.438 91.3623 232.829 90.9863 233.083 90.5176V87.793H231.501C229.382 87.793 228.254 88.5254 228.117 89.9902L228.103 90.2393C228.103 90.7666 228.288 91.2012 228.659 91.543C229.03 91.8848 229.538 92.0557 230.183 92.0557ZM249.489 83.1201C248.913 83.042 248.405 83.0029 247.966 83.0029C246.364 83.0029 245.314 83.5449 244.816 84.6289V95H240.583V79.1504H244.582L244.699 81.04C245.549 79.585 246.726 78.8574 248.229 78.8574C248.698 78.8574 249.138 78.9209 249.548 79.0479L249.489 83.1201ZM250.588 86.958C250.588 84.4873 251.14 82.5195 252.243 81.0547C253.356 79.5898 254.875 78.8574 256.799 78.8574C258.342 78.8574 259.616 79.4336 260.622 80.5859V72.5H264.87V95H261.047L260.842 93.3154C259.787 94.6338 258.43 95.293 256.77 95.293C254.904 95.293 253.405 94.5605 252.272 93.0957C251.149 91.6211 250.588 89.5752 250.588 86.958ZM254.821 87.2656C254.821 88.75 255.08 89.8877 255.598 90.6787C256.115 91.4697 256.867 91.8652 257.854 91.8652C259.162 91.8652 260.085 91.3135 260.622 90.21V83.9551C260.095 82.8516 259.182 82.2998 257.883 82.2998C255.842 82.2998 254.821 83.9551 254.821 87.2656Z" fill="#172755"/>
<path d="M155.219 131.06C154.586 131.804 153.657 132.176 152.433 132.176C151.419 132.176 150.646 131.883 150.112 131.297C149.585 130.705 149.318 129.832 149.312 128.678V122.49H150.938V128.634C150.938 130.075 151.524 130.796 152.696 130.796C153.938 130.796 154.765 130.333 155.175 129.407V122.49H156.801V132H155.254L155.219 131.06ZM167.312 127.351C167.312 128.798 166.981 129.964 166.319 130.849C165.657 131.733 164.761 132.176 163.63 132.176C162.476 132.176 161.567 131.81 160.905 131.077V135.656H159.279V122.49H160.765L160.844 123.545C161.506 122.725 162.426 122.314 163.604 122.314C164.746 122.314 165.648 122.745 166.311 123.606C166.979 124.468 167.312 125.666 167.312 127.201V127.351ZM165.687 127.166C165.687 126.094 165.458 125.247 165.001 124.626C164.544 124.005 163.917 123.694 163.12 123.694C162.136 123.694 161.397 124.131 160.905 125.004V129.548C161.392 130.415 162.136 130.849 163.138 130.849C163.917 130.849 164.535 130.541 164.992 129.926C165.455 129.305 165.687 128.385 165.687 127.166ZM176.058 120.188V122.49H177.833V123.747H176.058V129.645C176.058 130.025 176.137 130.312 176.295 130.506C176.453 130.693 176.723 130.787 177.104 130.787C177.291 130.787 177.549 130.752 177.877 130.682V132C177.449 132.117 177.033 132.176 176.629 132.176C175.902 132.176 175.354 131.956 174.985 131.517C174.616 131.077 174.432 130.453 174.432 129.645V123.747H172.7V122.49H174.432V120.188H176.058ZM179.134 127.157C179.134 126.226 179.315 125.388 179.679 124.644C180.048 123.899 180.558 123.325 181.208 122.921C181.864 122.517 182.611 122.314 183.449 122.314C184.744 122.314 185.79 122.763 186.587 123.659C187.39 124.556 187.791 125.748 187.791 127.236V127.351C187.791 128.276 187.612 129.108 187.255 129.847C186.903 130.579 186.396 131.15 185.734 131.561C185.078 131.971 184.322 132.176 183.467 132.176C182.178 132.176 181.132 131.728 180.329 130.831C179.532 129.935 179.134 128.748 179.134 127.271V127.157ZM180.769 127.351C180.769 128.405 181.012 129.252 181.498 129.891C181.99 130.529 182.646 130.849 183.467 130.849C184.293 130.849 184.949 130.526 185.436 129.882C185.922 129.231 186.165 128.323 186.165 127.157C186.165 126.114 185.916 125.271 185.418 124.626C184.926 123.976 184.27 123.65 183.449 123.65C182.646 123.65 181.999 123.97 181.507 124.608C181.015 125.247 180.769 126.161 180.769 127.351ZM202.513 132H194.128V130.831L198.558 125.909C199.214 125.165 199.665 124.562 199.911 124.099C200.163 123.63 200.289 123.146 200.289 122.648C200.289 121.98 200.087 121.433 199.683 121.005C199.278 120.577 198.739 120.363 198.065 120.363C197.257 120.363 196.627 120.595 196.176 121.058C195.73 121.515 195.508 122.153 195.508 122.974H193.882C193.882 121.796 194.26 120.844 195.016 120.117C195.777 119.391 196.794 119.027 198.065 119.027C199.255 119.027 200.195 119.341 200.887 119.968C201.578 120.589 201.924 121.418 201.924 122.455C201.924 123.715 201.121 125.215 199.516 126.955L196.088 130.673H202.513V132ZM212.26 126.542C212.26 128.446 211.935 129.861 211.284 130.787C210.634 131.713 209.617 132.176 208.234 132.176C206.869 132.176 205.858 131.725 205.202 130.822C204.546 129.914 204.206 128.561 204.183 126.762V124.591C204.183 122.71 204.508 121.312 205.158 120.398C205.809 119.484 206.828 119.027 208.217 119.027C209.594 119.027 210.607 119.47 211.258 120.354C211.908 121.233 212.242 122.593 212.26 124.433V126.542ZM210.634 124.318C210.634 122.941 210.44 121.939 210.054 121.312C209.667 120.68 209.055 120.363 208.217 120.363C207.385 120.363 206.778 120.677 206.397 121.304C206.017 121.931 205.82 122.895 205.809 124.195V126.797C205.809 128.18 206.008 129.202 206.406 129.864C206.811 130.521 207.42 130.849 208.234 130.849C209.037 130.849 209.632 130.538 210.019 129.917C210.411 129.296 210.616 128.317 210.634 126.981V124.318ZM224.846 131.06C224.213 131.804 223.284 132.176 222.06 132.176C221.046 132.176 220.272 131.883 219.739 131.297C219.212 130.705 218.945 129.832 218.939 128.678V122.49H220.565V128.634C220.565 130.075 221.151 130.796 222.323 130.796C223.565 130.796 224.392 130.333 224.802 129.407V122.49H226.428V132H224.881L224.846 131.06ZM234.443 129.478C234.443 129.038 234.276 128.698 233.942 128.458C233.614 128.212 233.037 128.001 232.211 127.825C231.391 127.649 230.737 127.438 230.251 127.192C229.771 126.946 229.413 126.653 229.179 126.313C228.95 125.974 228.836 125.569 228.836 125.101C228.836 124.321 229.164 123.662 229.82 123.123C230.482 122.584 231.326 122.314 232.352 122.314C233.43 122.314 234.303 122.593 234.971 123.149C235.645 123.706 235.981 124.418 235.981 125.285H234.347C234.347 124.84 234.156 124.456 233.775 124.134C233.4 123.812 232.926 123.65 232.352 123.65C231.76 123.65 231.297 123.779 230.963 124.037C230.629 124.295 230.462 124.632 230.462 125.048C230.462 125.44 230.617 125.736 230.928 125.936C231.238 126.135 231.798 126.325 232.606 126.507C233.421 126.688 234.08 126.905 234.584 127.157C235.088 127.409 235.46 127.714 235.7 128.071C235.946 128.423 236.069 128.854 236.069 129.363C236.069 130.213 235.729 130.896 235.05 131.411C234.37 131.921 233.488 132.176 232.404 132.176C231.643 132.176 230.969 132.041 230.383 131.771C229.797 131.502 229.337 131.127 229.003 130.646C228.675 130.16 228.511 129.636 228.511 129.073H230.137C230.166 129.618 230.383 130.052 230.787 130.374C231.197 130.69 231.736 130.849 232.404 130.849C233.02 130.849 233.512 130.726 233.881 130.479C234.256 130.228 234.443 129.894 234.443 129.478ZM242.134 132.176C240.845 132.176 239.796 131.754 238.987 130.91C238.179 130.061 237.774 128.927 237.774 127.509V127.21C237.774 126.267 237.953 125.426 238.311 124.688C238.674 123.943 239.178 123.363 239.822 122.947C240.473 122.525 241.176 122.314 241.932 122.314C243.168 122.314 244.129 122.722 244.814 123.536C245.5 124.351 245.843 125.517 245.843 127.034V127.711H239.4C239.424 128.648 239.696 129.407 240.218 129.987C240.745 130.562 241.413 130.849 242.222 130.849C242.796 130.849 243.282 130.731 243.681 130.497C244.079 130.263 244.428 129.952 244.727 129.565L245.72 130.339C244.923 131.563 243.728 132.176 242.134 132.176ZM241.932 123.65C241.275 123.65 240.725 123.891 240.279 124.371C239.834 124.846 239.559 125.514 239.453 126.375H244.217V126.252C244.17 125.426 243.947 124.787 243.549 124.336C243.15 123.879 242.611 123.65 241.932 123.65ZM252.329 123.949C252.083 123.908 251.816 123.888 251.529 123.888C250.463 123.888 249.739 124.342 249.358 125.25V132H247.732V122.49H249.314L249.341 123.589C249.874 122.739 250.63 122.314 251.608 122.314C251.925 122.314 252.165 122.355 252.329 122.438V123.949ZM259.369 129.478C259.369 129.038 259.202 128.698 258.868 128.458C258.54 128.212 257.963 128.001 257.137 127.825C256.316 127.649 255.663 127.438 255.177 127.192C254.696 126.946 254.339 126.653 254.104 126.313C253.876 125.974 253.762 125.569 253.762 125.101C253.762 124.321 254.09 123.662 254.746 123.123C255.408 122.584 256.252 122.314 257.277 122.314C258.355 122.314 259.229 122.593 259.896 123.149C260.57 123.706 260.907 124.418 260.907 125.285H259.272C259.272 124.84 259.082 124.456 258.701 124.134C258.326 123.812 257.852 123.65 257.277 123.65C256.686 123.65 256.223 123.779 255.889 124.037C255.555 124.295 255.388 124.632 255.388 125.048C255.388 125.44 255.543 125.736 255.854 125.936C256.164 126.135 256.724 126.325 257.532 126.507C258.347 126.688 259.006 126.905 259.51 127.157C260.014 127.409 260.386 127.714 260.626 128.071C260.872 128.423 260.995 128.854 260.995 129.363C260.995 130.213 260.655 130.896 259.976 131.411C259.296 131.921 258.414 132.176 257.33 132.176C256.568 132.176 255.895 132.041 255.309 131.771C254.723 131.502 254.263 131.127 253.929 130.646C253.601 130.16 253.437 129.636 253.437 129.073H255.062C255.092 129.618 255.309 130.052 255.713 130.374C256.123 130.69 256.662 130.849 257.33 130.849C257.945 130.849 258.438 130.726 258.807 130.479C259.182 130.228 259.369 129.894 259.369 129.478Z" fill="#8794BA"/>
<path d="M173.006 255.39C173.006 254.589 172.781 253.954 172.332 253.485C171.893 253.007 171.141 252.567 170.076 252.167C169.012 251.767 168.094 251.371 167.322 250.98C166.551 250.58 165.887 250.126 165.33 249.618C164.783 249.101 164.354 248.495 164.041 247.802C163.738 247.108 163.587 246.283 163.587 245.326C163.587 243.676 164.114 242.323 165.169 241.269C166.224 240.214 167.625 239.599 169.373 239.423V236.288H171.717V239.467C173.445 239.711 174.798 240.434 175.774 241.635C176.751 242.826 177.239 244.374 177.239 246.278H173.006C173.006 245.106 172.762 244.232 172.273 243.656C171.795 243.07 171.15 242.777 170.34 242.777C169.539 242.777 168.919 243.007 168.479 243.466C168.04 243.915 167.82 244.54 167.82 245.341C167.82 246.083 168.035 246.679 168.465 247.128C168.895 247.577 169.69 248.036 170.853 248.505C172.024 248.974 172.986 249.418 173.738 249.838C174.49 250.248 175.125 250.717 175.643 251.244C176.16 251.762 176.556 252.357 176.829 253.031C177.103 253.695 177.239 254.472 177.239 255.36C177.239 257.021 176.722 258.368 175.687 259.403C174.651 260.438 173.226 261.049 171.409 261.234V264.149H169.08V261.249C167.078 261.034 165.525 260.326 164.422 259.125C163.328 257.914 162.781 256.308 162.781 254.306H167.015C167.015 255.468 167.288 256.361 167.835 256.986C168.392 257.602 169.188 257.909 170.223 257.909C171.082 257.909 171.761 257.685 172.259 257.235C172.757 256.776 173.006 256.161 173.006 255.39ZM201.365 243.949C199.158 246.117 196.58 247.201 193.631 247.201C189.861 247.201 186.844 245.912 184.578 243.334C182.312 240.736 181.18 237.24 181.18 232.846C181.18 230.053 181.785 227.494 182.996 225.17C184.227 222.826 185.936 221.01 188.123 219.721C190.311 218.412 192.771 217.758 195.506 217.758C198.318 217.758 200.818 218.461 203.006 219.867C205.193 221.273 206.893 223.295 208.104 225.932C209.314 228.568 209.93 231.586 209.949 234.984V238.119C209.949 245.229 208.182 250.814 204.646 254.877C201.111 258.939 196.102 261.107 189.617 261.381L187.537 261.41V254.35L189.412 254.32C196.775 253.988 200.76 250.531 201.365 243.949ZM195.711 240.727C197.078 240.727 198.25 240.375 199.227 239.672C200.223 238.969 200.975 238.119 201.482 237.123V233.637C201.482 230.766 200.936 228.539 199.842 226.957C198.748 225.375 197.283 224.584 195.447 224.584C193.748 224.584 192.352 225.365 191.258 226.928C190.164 228.471 189.617 230.414 189.617 232.758C189.617 235.082 190.145 236.996 191.199 238.5C192.273 239.984 193.777 240.727 195.711 240.727ZM235.818 243.949C233.611 246.117 231.033 247.201 228.084 247.201C224.314 247.201 221.297 245.912 219.031 243.334C216.766 240.736 215.633 237.24 215.633 232.846C215.633 230.053 216.238 227.494 217.449 225.17C218.68 222.826 220.389 221.01 222.576 219.721C224.764 218.412 227.225 217.758 229.959 217.758C232.771 217.758 235.271 218.461 237.459 219.867C239.646 221.273 241.346 223.295 242.557 225.932C243.768 228.568 244.383 231.586 244.402 234.984V238.119C244.402 245.229 242.635 250.814 239.1 254.877C235.564 258.939 230.555 261.107 224.07 261.381L221.99 261.41V254.35L223.865 254.32C231.229 253.988 235.213 250.531 235.818 243.949ZM230.164 240.727C231.531 240.727 232.703 240.375 233.68 239.672C234.676 238.969 235.428 238.119 235.936 237.123V233.637C235.936 230.766 235.389 228.539 234.295 226.957C233.201 225.375 231.736 224.584 229.9 224.584C228.201 224.584 226.805 225.365 225.711 226.928C224.617 228.471 224.07 230.414 224.07 232.758C224.07 235.082 224.598 236.996 225.652 238.5C226.727 239.984 228.23 240.727 230.164 240.727Z" fill="#172755"/>
<path d="M176.289 286.867C176.289 288.154 175.995 289.19 175.406 289.977C174.818 290.763 174.021 291.156 173.016 291.156C171.99 291.156 171.182 290.831 170.594 290.18V294.25H169.148V282.547H170.469L170.539 283.484C171.128 282.755 171.945 282.391 172.992 282.391C174.008 282.391 174.81 282.773 175.398 283.539C175.992 284.305 176.289 285.37 176.289 286.734V286.867ZM174.844 286.703C174.844 285.75 174.641 284.997 174.234 284.445C173.828 283.893 173.271 283.617 172.562 283.617C171.688 283.617 171.031 284.005 170.594 284.781V288.82C171.026 289.591 171.688 289.977 172.578 289.977C173.271 289.977 173.82 289.703 174.227 289.156C174.638 288.604 174.844 287.786 174.844 286.703ZM181.641 291.156C180.495 291.156 179.562 290.781 178.844 290.031C178.125 289.276 177.766 288.268 177.766 287.008V286.742C177.766 285.904 177.924 285.156 178.242 284.5C178.565 283.839 179.013 283.323 179.586 282.953C180.164 282.578 180.789 282.391 181.461 282.391C182.56 282.391 183.414 282.753 184.023 283.477C184.633 284.201 184.938 285.237 184.938 286.586V287.188H179.211C179.232 288.021 179.474 288.695 179.938 289.211C180.406 289.721 181 289.977 181.719 289.977C182.229 289.977 182.661 289.872 183.016 289.664C183.37 289.456 183.68 289.18 183.945 288.836L184.828 289.523C184.12 290.612 183.057 291.156 181.641 291.156ZM181.461 283.578C180.878 283.578 180.388 283.792 179.992 284.219C179.596 284.641 179.352 285.234 179.258 286H183.492V285.891C183.451 285.156 183.253 284.589 182.898 284.188C182.544 283.781 182.065 283.578 181.461 283.578ZM190.703 283.844C190.484 283.807 190.247 283.789 189.992 283.789C189.044 283.789 188.401 284.193 188.062 285V291H186.617V282.547H188.023L188.047 283.523C188.521 282.768 189.193 282.391 190.062 282.391C190.344 282.391 190.557 282.427 190.703 282.5V283.844ZM197.367 282.547L197.406 283.484C198.026 282.755 198.862 282.391 199.914 282.391C201.096 282.391 201.901 282.844 202.328 283.75C202.609 283.344 202.974 283.016 203.422 282.766C203.875 282.516 204.409 282.391 205.023 282.391C206.878 282.391 207.82 283.372 207.852 285.336V291H206.406V285.422C206.406 284.818 206.268 284.367 205.992 284.07C205.716 283.768 205.253 283.617 204.602 283.617C204.065 283.617 203.62 283.779 203.266 284.102C202.911 284.419 202.706 284.849 202.648 285.391V291H201.195V285.461C201.195 284.232 200.594 283.617 199.391 283.617C198.443 283.617 197.794 284.021 197.445 284.828V291H196V282.547H197.367ZM209.656 286.695C209.656 285.867 209.818 285.122 210.141 284.461C210.469 283.799 210.922 283.289 211.5 282.93C212.083 282.57 212.747 282.391 213.492 282.391C214.643 282.391 215.573 282.789 216.281 283.586C216.995 284.383 217.352 285.443 217.352 286.766V286.867C217.352 287.69 217.193 288.43 216.875 289.086C216.562 289.737 216.112 290.245 215.523 290.609C214.94 290.974 214.268 291.156 213.508 291.156C212.362 291.156 211.432 290.758 210.719 289.961C210.01 289.164 209.656 288.109 209.656 286.797V286.695ZM211.109 286.867C211.109 287.805 211.326 288.557 211.758 289.125C212.195 289.693 212.779 289.977 213.508 289.977C214.242 289.977 214.826 289.69 215.258 289.117C215.69 288.539 215.906 287.732 215.906 286.695C215.906 285.768 215.685 285.018 215.242 284.445C214.805 283.867 214.221 283.578 213.492 283.578C212.779 283.578 212.203 283.862 211.766 284.43C211.328 284.997 211.109 285.81 211.109 286.867ZM220.531 282.547L220.578 283.609C221.224 282.797 222.068 282.391 223.109 282.391C224.896 282.391 225.797 283.398 225.812 285.414V291H224.367V285.406C224.362 284.797 224.221 284.346 223.945 284.055C223.674 283.763 223.25 283.617 222.672 283.617C222.203 283.617 221.792 283.742 221.438 283.992C221.083 284.242 220.807 284.57 220.609 284.977V291H219.164V282.547H220.531ZM229.953 280.5V282.547H231.531V283.664H229.953V288.906C229.953 289.245 230.023 289.5 230.164 289.672C230.305 289.839 230.544 289.922 230.883 289.922C231.049 289.922 231.279 289.891 231.57 289.828V291C231.19 291.104 230.82 291.156 230.461 291.156C229.815 291.156 229.328 290.961 229 290.57C228.672 290.18 228.508 289.625 228.508 288.906V283.664H226.969V282.547H228.508V280.5H229.953ZM234.672 283.57C235.312 282.784 236.146 282.391 237.172 282.391C238.958 282.391 239.859 283.398 239.875 285.414V291H238.43V285.406C238.424 284.797 238.284 284.346 238.008 284.055C237.737 283.763 237.312 283.617 236.734 283.617C236.266 283.617 235.854 283.742 235.5 283.992C235.146 284.242 234.87 284.57 234.672 284.977V291H233.227V279H234.672V283.57Z" fill="#8794BA"/>
<rect x="95" y="176" width="220" height="1" fill="#D3D9E9"/>
<defs>
<filter id="filter0_d" x="0" y="0" width="410" height="510" filterUnits="userSpaceOnUse" color-interpolation-filters="sRGB">
<feFlood flood-opacity="0" result="BackgroundImageFix"/>
<feColorMatrix in="SourceAlpha" type="matrix" values="0 0 0 0 0 0 0 0 0 0 0 0 0 0 0 0 0 0 127 0"/>
<feMorphology radius="15" operator="erode" in="SourceAlpha" result="effect1_dropShadow"/>
<feOffset dy="18"/>
<feGaussianBlur stdDeviation="25"/>
<feColorMatrix type="matrix" values="0 0 0 0 0.0217708 0 0 0 0 0.0570128 0 0 0 0 0.158333 0 0 0 1 0"/>
<feBlend mode="normal" in2="BackgroundImageFix" result="effect1_dropShadow"/>
<feBlend mode="normal" in="SourceGraphic" in2="effect1_dropShadow" result="shape"/>
</filter>
</defs>
</svg>
