<svg width="410" height="510" viewBox="0 0 410 510" fill="none" xmlns="http://www.w3.org/2000/svg">
<g opacity="0.7" filter="url(#filter0_d)">
<rect x="35" y="17" width="340" height="440" rx="30" fill="#0F1F4B"/>
</g>
<path d="M193.57 362.18C193.57 363.294 193.383 364.268 193.008 365.102C192.633 365.93 192.102 366.562 191.414 367C190.727 367.438 189.924 367.656 189.008 367.656C188.112 367.656 187.318 367.438 186.625 367C185.932 366.557 185.393 365.93 185.008 365.117C184.628 364.299 184.432 363.354 184.422 362.281V361.461C184.422 360.367 184.612 359.401 184.992 358.562C185.372 357.724 185.909 357.083 186.602 356.641C187.299 356.193 188.096 355.969 188.992 355.969C189.904 355.969 190.706 356.19 191.398 356.633C192.096 357.07 192.633 357.708 193.008 358.547C193.383 359.38 193.57 360.352 193.57 361.461V362.18ZM192.078 361.445C192.078 360.096 191.807 359.062 191.266 358.344C190.724 357.62 189.966 357.258 188.992 357.258C188.044 357.258 187.297 357.62 186.75 358.344C186.208 359.062 185.93 360.062 185.914 361.344V362.18C185.914 363.487 186.188 364.516 186.734 365.266C187.286 366.01 188.044 366.383 189.008 366.383C189.977 366.383 190.727 366.031 191.258 365.328C191.789 364.62 192.062 363.607 192.078 362.289V361.445ZM199.68 360.344C199.461 360.307 199.224 360.289 198.969 360.289C198.021 360.289 197.378 360.693 197.039 361.5V367.5H195.594V359.047H197L197.023 360.023C197.497 359.268 198.169 358.891 199.039 358.891C199.32 358.891 199.534 358.927 199.68 359V360.344ZM200.508 363.203C200.508 361.906 200.815 360.865 201.43 360.078C202.044 359.286 202.849 358.891 203.844 358.891C204.833 358.891 205.617 359.229 206.195 359.906V355.5H207.641V367.5H206.312L206.242 366.594C205.664 367.302 204.859 367.656 203.828 367.656C202.849 367.656 202.049 367.255 201.43 366.453C200.815 365.651 200.508 364.604 200.508 363.312V363.203ZM201.953 363.367C201.953 364.326 202.151 365.076 202.547 365.617C202.943 366.159 203.49 366.43 204.188 366.43C205.104 366.43 205.773 366.018 206.195 365.195V361.312C205.763 360.516 205.099 360.117 204.203 360.117C203.495 360.117 202.943 360.391 202.547 360.938C202.151 361.484 201.953 362.294 201.953 363.367ZM213.398 367.656C212.253 367.656 211.32 367.281 210.602 366.531C209.883 365.776 209.523 364.768 209.523 363.508V363.242C209.523 362.404 209.682 361.656 210 361C210.323 360.339 210.771 359.823 211.344 359.453C211.922 359.078 212.547 358.891 213.219 358.891C214.318 358.891 215.172 359.253 215.781 359.977C216.391 360.701 216.695 361.737 216.695 363.086V363.688H210.969C210.99 364.521 211.232 365.195 211.695 365.711C212.164 366.221 212.758 366.477 213.477 366.477C213.987 366.477 214.419 366.372 214.773 366.164C215.128 365.956 215.438 365.68 215.703 365.336L216.586 366.023C215.878 367.112 214.815 367.656 213.398 367.656ZM213.219 360.078C212.635 360.078 212.146 360.292 211.75 360.719C211.354 361.141 211.109 361.734 211.016 362.5H215.25V362.391C215.208 361.656 215.01 361.089 214.656 360.688C214.302 360.281 213.823 360.078 213.219 360.078ZM222.461 360.344C222.242 360.307 222.005 360.289 221.75 360.289C220.802 360.289 220.159 360.693 219.82 361.5V367.5H218.375V359.047H219.781L219.805 360.023C220.279 359.268 220.951 358.891 221.82 358.891C222.102 358.891 222.315 358.927 222.461 359V360.344Z" fill="white"/>
<path d="M128.5 338H278.5V336H128.5V338ZM278.5 386H128.5V388H278.5V386ZM128.5 386C115.245 386 104.5 375.255 104.5 362H102.5C102.5 376.359 114.141 388 128.5 388V386ZM302.5 362C302.5 375.255 291.755 386 278.5 386V388C292.859 388 304.5 376.359 304.5 362H302.5ZM278.5 338C291.755 338 302.5 348.745 302.5 362H304.5C304.5 347.641 292.859 336 278.5 336V338ZM128.5 336C114.141 336 102.5 347.641 102.5 362H104.5C104.5 348.745 115.245 338 128.5 338V336Z" fill="#2A407C"/>
<path d="M170.118 89.4043C170.118 88.5742 169.825 87.9395 169.239 87.5C168.653 87.0508 167.599 86.582 166.075 86.0938C164.552 85.5957 163.346 85.1074 162.457 84.6289C160.035 83.3203 158.824 81.5576 158.824 79.3408C158.824 78.1885 159.146 77.1631 159.791 76.2646C160.445 75.3564 161.378 74.6484 162.589 74.1406C163.81 73.6328 165.177 73.3789 166.69 73.3789C168.214 73.3789 169.571 73.6572 170.763 74.2139C171.954 74.7607 172.877 75.5371 173.531 76.543C174.195 77.5488 174.527 78.6914 174.527 79.9707H170.133C170.133 78.9941 169.825 78.2373 169.21 77.7002C168.595 77.1533 167.73 76.8799 166.617 76.8799C165.543 76.8799 164.708 77.1094 164.112 77.5684C163.517 78.0176 163.219 78.6133 163.219 79.3555C163.219 80.0488 163.565 80.6299 164.259 81.0986C164.962 81.5674 165.992 82.0068 167.35 82.417C169.85 83.1689 171.671 84.1016 172.813 85.2148C173.956 86.3281 174.527 87.7148 174.527 89.375C174.527 91.2207 173.829 92.6709 172.433 93.7256C171.036 94.7705 169.156 95.293 166.793 95.293C165.152 95.293 163.658 94.9951 162.311 94.3994C160.963 93.7939 159.933 92.9688 159.22 91.9238C158.517 90.8789 158.165 89.668 158.165 88.291H162.574C162.574 90.6445 163.98 91.8213 166.793 91.8213C167.838 91.8213 168.653 91.6113 169.239 91.1914C169.825 90.7617 170.118 90.166 170.118 89.4043ZM182.306 75.2539V79.1504H185.016V82.2559H182.306V90.166C182.306 90.752 182.418 91.1719 182.643 91.4258C182.867 91.6797 183.297 91.8066 183.932 91.8066C184.4 91.8066 184.815 91.7725 185.177 91.7041V94.9121C184.347 95.166 183.492 95.293 182.613 95.293C179.645 95.293 178.131 93.7939 178.072 90.7959V82.2559H175.758V79.1504H178.072V75.2539H182.306ZM196.559 95C196.363 94.6191 196.222 94.1455 196.134 93.5791C195.108 94.7217 193.775 95.293 192.135 95.293C190.582 95.293 189.293 94.8438 188.268 93.9453C187.252 93.0469 186.744 91.9141 186.744 90.5469C186.744 88.8672 187.364 87.5781 188.604 86.6797C189.854 85.7812 191.656 85.3271 194.01 85.3174H195.958V84.4092C195.958 83.6768 195.768 83.0908 195.387 82.6514C195.016 82.2119 194.425 81.9922 193.614 81.9922C192.901 81.9922 192.34 82.1631 191.93 82.5049C191.529 82.8467 191.329 83.3154 191.329 83.9111H187.096C187.096 82.9932 187.379 82.1436 187.945 81.3623C188.512 80.5811 189.312 79.9707 190.348 79.5312C191.383 79.082 192.545 78.8574 193.834 78.8574C195.787 78.8574 197.335 79.3506 198.478 80.3369C199.63 81.3135 200.206 82.6904 200.206 84.4678V91.3379C200.216 92.8418 200.426 93.9795 200.836 94.751V95H196.559ZM193.058 92.0557C193.683 92.0557 194.259 91.9189 194.786 91.6455C195.313 91.3623 195.704 90.9863 195.958 90.5176V87.793H194.376C192.257 87.793 191.129 88.5254 190.992 89.9902L190.978 90.2393C190.978 90.7666 191.163 91.2012 191.534 91.543C191.905 91.8848 192.413 92.0557 193.058 92.0557ZM212.364 83.1201C211.788 83.042 211.28 83.0029 210.841 83.0029C209.239 83.0029 208.189 83.5449 207.691 84.6289V95H203.458V79.1504H207.457L207.574 81.04C208.424 79.585 209.601 78.8574 211.104 78.8574C211.573 78.8574 212.013 78.9209 212.423 79.0479L212.364 83.1201ZM220.216 75.2539V79.1504H222.926V82.2559H220.216V90.166C220.216 90.752 220.328 91.1719 220.553 91.4258C220.777 91.6797 221.207 91.8066 221.842 91.8066C222.311 91.8066 222.726 91.7725 223.087 91.7041V94.9121C222.257 95.166 221.402 95.293 220.523 95.293C217.555 95.293 216.041 93.7939 215.982 90.7959V82.2559H213.668V79.1504H215.982V75.2539H220.216ZM232.579 95.293C230.255 95.293 228.36 94.5801 226.896 93.1543C225.44 91.7285 224.713 89.8291 224.713 87.4561V87.0459C224.713 85.4541 225.021 84.0332 225.636 82.7832C226.251 81.5234 227.12 80.5566 228.243 79.8828C229.376 79.1992 230.665 78.8574 232.11 78.8574C234.278 78.8574 235.982 79.541 237.223 80.9082C238.473 82.2754 239.098 84.2139 239.098 86.7236V88.4521H229.005C229.142 89.4873 229.552 90.3174 230.235 90.9424C230.929 91.5674 231.803 91.8799 232.857 91.8799C234.488 91.8799 235.763 91.2891 236.681 90.1074L238.761 92.4365C238.126 93.335 237.267 94.0381 236.183 94.5459C235.099 95.0439 233.897 95.293 232.579 95.293ZM232.096 82.2852C231.256 82.2852 230.572 82.5684 230.045 83.1348C229.527 83.7012 229.195 84.5117 229.049 85.5664H234.938V85.2295C234.918 84.292 234.664 83.5693 234.176 83.0615C233.688 82.5439 232.994 82.2852 232.096 82.2852ZM250.421 83.1201C249.845 83.042 249.337 83.0029 248.897 83.0029C247.296 83.0029 246.246 83.5449 245.748 84.6289V95H241.515V79.1504H245.514L245.631 81.04C246.48 79.585 247.657 78.8574 249.161 78.8574C249.63 78.8574 250.069 78.9209 250.479 79.0479L250.421 83.1201Z" fill="white"/>
<path d="M159.272 131.06C158.64 131.804 157.711 132.176 156.486 132.176C155.473 132.176 154.699 131.883 154.166 131.297C153.639 130.705 153.372 129.832 153.366 128.678V122.49H154.992V128.634C154.992 130.075 155.578 130.796 156.75 130.796C157.992 130.796 158.818 130.333 159.229 129.407V122.49H160.854V132H159.308L159.272 131.06ZM171.366 127.351C171.366 128.798 171.035 129.964 170.373 130.849C169.711 131.733 168.814 132.176 167.684 132.176C166.529 132.176 165.621 131.81 164.959 131.077V135.656H163.333V122.49H164.818L164.897 123.545C165.56 122.725 166.479 122.314 167.657 122.314C168.8 122.314 169.702 122.745 170.364 123.606C171.032 124.468 171.366 125.666 171.366 127.201V127.351ZM169.74 127.166C169.74 126.094 169.512 125.247 169.055 124.626C168.598 124.005 167.971 123.694 167.174 123.694C166.189 123.694 165.451 124.131 164.959 125.004V129.548C165.445 130.415 166.189 130.849 167.191 130.849C167.971 130.849 168.589 130.541 169.046 129.926C169.509 129.305 169.74 128.385 169.74 127.166ZM180.111 120.188V122.49H181.887V123.747H180.111V129.645C180.111 130.025 180.19 130.312 180.349 130.506C180.507 130.693 180.776 130.787 181.157 130.787C181.345 130.787 181.603 130.752 181.931 130.682V132C181.503 132.117 181.087 132.176 180.683 132.176C179.956 132.176 179.408 131.956 179.039 131.517C178.67 131.077 178.485 130.453 178.485 129.645V123.747H176.754V122.49H178.485V120.188H180.111ZM183.188 127.157C183.188 126.226 183.369 125.388 183.732 124.644C184.102 123.899 184.611 123.325 185.262 122.921C185.918 122.517 186.665 122.314 187.503 122.314C188.798 122.314 189.844 122.763 190.641 123.659C191.443 124.556 191.845 125.748 191.845 127.236V127.351C191.845 128.276 191.666 129.108 191.309 129.847C190.957 130.579 190.45 131.15 189.788 131.561C189.132 131.971 188.376 132.176 187.521 132.176C186.231 132.176 185.186 131.728 184.383 130.831C183.586 129.935 183.188 128.748 183.188 127.271V127.157ZM184.822 127.351C184.822 128.405 185.065 129.252 185.552 129.891C186.044 130.529 186.7 130.849 187.521 130.849C188.347 130.849 189.003 130.526 189.489 129.882C189.976 129.231 190.219 128.323 190.219 127.157C190.219 126.114 189.97 125.271 189.472 124.626C188.979 123.976 188.323 123.65 187.503 123.65C186.7 123.65 186.053 123.97 185.561 124.608C185.068 125.247 184.822 126.161 184.822 127.351ZM200.546 124.811H201.768C202.535 124.799 203.139 124.597 203.578 124.204C204.018 123.812 204.237 123.281 204.237 122.613C204.237 121.113 203.49 120.363 201.996 120.363C201.293 120.363 200.73 120.565 200.309 120.97C199.893 121.368 199.685 121.898 199.685 122.561H198.059C198.059 121.547 198.428 120.706 199.166 120.038C199.91 119.364 200.854 119.027 201.996 119.027C203.203 119.027 204.149 119.347 204.835 119.985C205.521 120.624 205.863 121.512 205.863 122.648C205.863 123.205 205.682 123.744 205.318 124.266C204.961 124.787 204.472 125.177 203.851 125.435C204.554 125.657 205.096 126.026 205.477 126.542C205.863 127.058 206.057 127.688 206.057 128.432C206.057 129.58 205.682 130.491 204.932 131.165C204.182 131.839 203.206 132.176 202.005 132.176C200.804 132.176 199.825 131.851 199.069 131.2C198.319 130.55 197.944 129.691 197.944 128.625H199.579C199.579 129.299 199.799 129.838 200.238 130.242C200.678 130.646 201.267 130.849 202.005 130.849C202.79 130.849 203.391 130.644 203.807 130.233C204.223 129.823 204.431 129.234 204.431 128.467C204.431 127.723 204.202 127.151 203.745 126.753C203.288 126.354 202.629 126.149 201.768 126.138H200.546V124.811ZM218.792 131.06C218.159 131.804 217.23 132.176 216.006 132.176C214.992 132.176 214.219 131.883 213.686 131.297C213.158 130.705 212.892 129.832 212.886 128.678V122.49H214.512V128.634C214.512 130.075 215.098 130.796 216.27 130.796C217.512 130.796 218.338 130.333 218.748 129.407V122.49H220.374V132H218.827L218.792 131.06ZM228.39 129.478C228.39 129.038 228.223 128.698 227.889 128.458C227.561 128.212 226.983 128.001 226.157 127.825C225.337 127.649 224.684 127.438 224.197 127.192C223.717 126.946 223.359 126.653 223.125 126.313C222.896 125.974 222.782 125.569 222.782 125.101C222.782 124.321 223.11 123.662 223.767 123.123C224.429 122.584 225.272 122.314 226.298 122.314C227.376 122.314 228.249 122.593 228.917 123.149C229.591 123.706 229.928 124.418 229.928 125.285H228.293C228.293 124.84 228.103 124.456 227.722 124.134C227.347 123.812 226.872 123.65 226.298 123.65C225.706 123.65 225.243 123.779 224.909 124.037C224.575 124.295 224.408 124.632 224.408 125.048C224.408 125.44 224.563 125.736 224.874 125.936C225.185 126.135 225.744 126.325 226.553 126.507C227.367 126.688 228.026 126.905 228.53 127.157C229.034 127.409 229.406 127.714 229.646 128.071C229.893 128.423 230.016 128.854 230.016 129.363C230.016 130.213 229.676 130.896 228.996 131.411C228.316 131.921 227.435 132.176 226.351 132.176C225.589 132.176 224.915 132.041 224.329 131.771C223.743 131.502 223.283 131.127 222.949 130.646C222.621 130.16 222.457 129.636 222.457 129.073H224.083C224.112 129.618 224.329 130.052 224.733 130.374C225.144 130.69 225.683 130.849 226.351 130.849C226.966 130.849 227.458 130.726 227.827 130.479C228.202 130.228 228.39 129.894 228.39 129.478ZM236.08 132.176C234.791 132.176 233.742 131.754 232.934 130.91C232.125 130.061 231.721 128.927 231.721 127.509V127.21C231.721 126.267 231.899 125.426 232.257 124.688C232.62 123.943 233.124 123.363 233.769 122.947C234.419 122.525 235.122 122.314 235.878 122.314C237.114 122.314 238.075 122.722 238.761 123.536C239.446 124.351 239.789 125.517 239.789 127.034V127.711H233.347C233.37 128.648 233.643 129.407 234.164 129.987C234.691 130.562 235.359 130.849 236.168 130.849C236.742 130.849 237.229 130.731 237.627 130.497C238.025 130.263 238.374 129.952 238.673 129.565L239.666 130.339C238.869 131.563 237.674 132.176 236.08 132.176ZM235.878 123.65C235.222 123.65 234.671 123.891 234.226 124.371C233.78 124.846 233.505 125.514 233.399 126.375H238.163V126.252C238.116 125.426 237.894 124.787 237.495 124.336C237.097 123.879 236.558 123.65 235.878 123.65ZM246.275 123.949C246.029 123.908 245.763 123.888 245.476 123.888C244.409 123.888 243.686 124.342 243.305 125.25V132H241.679V122.49H243.261L243.287 123.589C243.82 122.739 244.576 122.314 245.555 122.314C245.871 122.314 246.111 122.355 246.275 122.438V123.949ZM253.315 129.478C253.315 129.038 253.148 128.698 252.814 128.458C252.486 128.212 251.909 128.001 251.083 127.825C250.263 127.649 249.609 127.438 249.123 127.192C248.643 126.946 248.285 126.653 248.051 126.313C247.822 125.974 247.708 125.569 247.708 125.101C247.708 124.321 248.036 123.662 248.692 123.123C249.354 122.584 250.198 122.314 251.224 122.314C252.302 122.314 253.175 122.593 253.843 123.149C254.517 123.706 254.854 124.418 254.854 125.285H253.219C253.219 124.84 253.028 124.456 252.647 124.134C252.272 123.812 251.798 123.65 251.224 123.65C250.632 123.65 250.169 123.779 249.835 124.037C249.501 124.295 249.334 124.632 249.334 125.048C249.334 125.44 249.489 125.736 249.8 125.936C250.11 126.135 250.67 126.325 251.479 126.507C252.293 126.688 252.952 126.905 253.456 127.157C253.96 127.409 254.332 127.714 254.572 128.071C254.818 128.423 254.941 128.854 254.941 129.363C254.941 130.213 254.602 130.896 253.922 131.411C253.242 131.921 252.36 132.176 251.276 132.176C250.515 132.176 249.841 132.041 249.255 131.771C248.669 131.502 248.209 131.127 247.875 130.646C247.547 130.16 247.383 129.636 247.383 129.073H249.009C249.038 129.618 249.255 130.052 249.659 130.374C250.069 130.69 250.608 130.849 251.276 130.849C251.892 130.849 252.384 130.726 252.753 130.479C253.128 130.228 253.315 129.894 253.315 129.478Z" fill="#8794BA"/>
<path d="M172.006 255.39C172.006 254.589 171.781 253.954 171.332 253.485C170.893 253.007 170.141 252.567 169.076 252.167C168.012 251.767 167.094 251.371 166.322 250.98C165.551 250.58 164.887 250.126 164.33 249.618C163.783 249.101 163.354 248.495 163.041 247.802C162.738 247.108 162.587 246.283 162.587 245.326C162.587 243.676 163.114 242.323 164.169 241.269C165.224 240.214 166.625 239.599 168.373 239.423V236.288H170.717V239.467C172.445 239.711 173.798 240.434 174.774 241.635C175.751 242.826 176.239 244.374 176.239 246.278H172.006C172.006 245.106 171.762 244.232 171.273 243.656C170.795 243.07 170.15 242.777 169.34 242.777C168.539 242.777 167.919 243.007 167.479 243.466C167.04 243.915 166.82 244.54 166.82 245.341C166.82 246.083 167.035 246.679 167.465 247.128C167.895 247.577 168.69 248.036 169.853 248.505C171.024 248.974 171.986 249.418 172.738 249.838C173.49 250.248 174.125 250.717 174.643 251.244C175.16 251.762 175.556 252.357 175.829 253.031C176.103 253.695 176.239 254.472 176.239 255.36C176.239 257.021 175.722 258.368 174.687 259.403C173.651 260.438 172.226 261.049 170.409 261.234V264.149H168.08V261.249C166.078 261.034 164.525 260.326 163.422 259.125C162.328 257.914 161.781 256.308 161.781 254.306H166.015C166.015 255.468 166.288 256.361 166.835 256.986C167.392 257.602 168.188 257.909 169.223 257.909C170.082 257.909 170.761 257.685 171.259 257.235C171.757 256.776 172.006 256.161 172.006 255.39ZM209.799 261H180.561V255.199L194.359 240.492C196.254 238.422 197.65 236.615 198.549 235.072C199.467 233.529 199.926 232.064 199.926 230.678C199.926 228.783 199.447 227.299 198.49 226.225C197.533 225.131 196.166 224.584 194.389 224.584C192.475 224.584 190.961 225.248 189.848 226.576C188.754 227.885 188.207 229.613 188.207 231.762H179.711C179.711 229.164 180.326 226.791 181.557 224.643C182.807 222.494 184.564 220.814 186.83 219.604C189.096 218.373 191.664 217.758 194.535 217.758C198.93 217.758 202.338 218.812 204.76 220.922C207.201 223.031 208.422 226.01 208.422 229.857C208.422 231.967 207.875 234.115 206.781 236.303C205.688 238.49 203.812 241.039 201.156 243.949L191.459 254.174H209.799V261ZM234.818 243.949C232.611 246.117 230.033 247.201 227.084 247.201C223.314 247.201 220.297 245.912 218.031 243.334C215.766 240.736 214.633 237.24 214.633 232.846C214.633 230.053 215.238 227.494 216.449 225.17C217.68 222.826 219.389 221.01 221.576 219.721C223.764 218.412 226.225 217.758 228.959 217.758C231.771 217.758 234.271 218.461 236.459 219.867C238.646 221.273 240.346 223.295 241.557 225.932C242.768 228.568 243.383 231.586 243.402 234.984V238.119C243.402 245.229 241.635 250.814 238.1 254.877C234.564 258.939 229.555 261.107 223.07 261.381L220.99 261.41V254.35L222.865 254.32C230.229 253.988 234.213 250.531 234.818 243.949ZM229.164 240.727C230.531 240.727 231.703 240.375 232.68 239.672C233.676 238.969 234.428 238.119 234.936 237.123V233.637C234.936 230.766 234.389 228.539 233.295 226.957C232.201 225.375 230.736 224.584 228.9 224.584C227.201 224.584 225.805 225.365 224.711 226.928C223.617 228.471 223.07 230.414 223.07 232.758C223.07 235.082 223.598 236.996 224.652 238.5C225.727 239.984 227.23 240.727 229.164 240.727Z" fill="white"/>
<path d="M175.289 286.867C175.289 288.154 174.995 289.19 174.406 289.977C173.818 290.763 173.021 291.156 172.016 291.156C170.99 291.156 170.182 290.831 169.594 290.18V294.25H168.148V282.547H169.469L169.539 283.484C170.128 282.755 170.945 282.391 171.992 282.391C173.008 282.391 173.81 282.773 174.398 283.539C174.992 284.305 175.289 285.37 175.289 286.734V286.867ZM173.844 286.703C173.844 285.75 173.641 284.997 173.234 284.445C172.828 283.893 172.271 283.617 171.562 283.617C170.688 283.617 170.031 284.005 169.594 284.781V288.82C170.026 289.591 170.688 289.977 171.578 289.977C172.271 289.977 172.82 289.703 173.227 289.156C173.638 288.604 173.844 287.786 173.844 286.703ZM180.641 291.156C179.495 291.156 178.562 290.781 177.844 290.031C177.125 289.276 176.766 288.268 176.766 287.008V286.742C176.766 285.904 176.924 285.156 177.242 284.5C177.565 283.839 178.013 283.323 178.586 282.953C179.164 282.578 179.789 282.391 180.461 282.391C181.56 282.391 182.414 282.753 183.023 283.477C183.633 284.201 183.938 285.237 183.938 286.586V287.188H178.211C178.232 288.021 178.474 288.695 178.938 289.211C179.406 289.721 180 289.977 180.719 289.977C181.229 289.977 181.661 289.872 182.016 289.664C182.37 289.456 182.68 289.18 182.945 288.836L183.828 289.523C183.12 290.612 182.057 291.156 180.641 291.156ZM180.461 283.578C179.878 283.578 179.388 283.792 178.992 284.219C178.596 284.641 178.352 285.234 178.258 286H182.492V285.891C182.451 285.156 182.253 284.589 181.898 284.188C181.544 283.781 181.065 283.578 180.461 283.578ZM189.703 283.844C189.484 283.807 189.247 283.789 188.992 283.789C188.044 283.789 187.401 284.193 187.062 285V291H185.617V282.547H187.023L187.047 283.523C187.521 282.768 188.193 282.391 189.062 282.391C189.344 282.391 189.557 282.427 189.703 282.5V283.844ZM196.367 282.547L196.406 283.484C197.026 282.755 197.862 282.391 198.914 282.391C200.096 282.391 200.901 282.844 201.328 283.75C201.609 283.344 201.974 283.016 202.422 282.766C202.875 282.516 203.409 282.391 204.023 282.391C205.878 282.391 206.82 283.372 206.852 285.336V291H205.406V285.422C205.406 284.818 205.268 284.367 204.992 284.07C204.716 283.768 204.253 283.617 203.602 283.617C203.065 283.617 202.62 283.779 202.266 284.102C201.911 284.419 201.706 284.849 201.648 285.391V291H200.195V285.461C200.195 284.232 199.594 283.617 198.391 283.617C197.443 283.617 196.794 284.021 196.445 284.828V291H195V282.547H196.367ZM208.656 286.695C208.656 285.867 208.818 285.122 209.141 284.461C209.469 283.799 209.922 283.289 210.5 282.93C211.083 282.57 211.747 282.391 212.492 282.391C213.643 282.391 214.573 282.789 215.281 283.586C215.995 284.383 216.352 285.443 216.352 286.766V286.867C216.352 287.69 216.193 288.43 215.875 289.086C215.562 289.737 215.112 290.245 214.523 290.609C213.94 290.974 213.268 291.156 212.508 291.156C211.362 291.156 210.432 290.758 209.719 289.961C209.01 289.164 208.656 288.109 208.656 286.797V286.695ZM210.109 286.867C210.109 287.805 210.326 288.557 210.758 289.125C211.195 289.693 211.779 289.977 212.508 289.977C213.242 289.977 213.826 289.69 214.258 289.117C214.69 288.539 214.906 287.732 214.906 286.695C214.906 285.768 214.685 285.018 214.242 284.445C213.805 283.867 213.221 283.578 212.492 283.578C211.779 283.578 211.203 283.862 210.766 284.43C210.328 284.997 210.109 285.81 210.109 286.867ZM219.531 282.547L219.578 283.609C220.224 282.797 221.068 282.391 222.109 282.391C223.896 282.391 224.797 283.398 224.812 285.414V291H223.367V285.406C223.362 284.797 223.221 284.346 222.945 284.055C222.674 283.763 222.25 283.617 221.672 283.617C221.203 283.617 220.792 283.742 220.438 283.992C220.083 284.242 219.807 284.57 219.609 284.977V291H218.164V282.547H219.531ZM228.953 280.5V282.547H230.531V283.664H228.953V288.906C228.953 289.245 229.023 289.5 229.164 289.672C229.305 289.839 229.544 289.922 229.883 289.922C230.049 289.922 230.279 289.891 230.57 289.828V291C230.19 291.104 229.82 291.156 229.461 291.156C228.815 291.156 228.328 290.961 228 290.57C227.672 290.18 227.508 289.625 227.508 288.906V283.664H225.969V282.547H227.508V280.5H228.953ZM233.672 283.57C234.312 282.784 235.146 282.391 236.172 282.391C237.958 282.391 238.859 283.398 238.875 285.414V291H237.43V285.406C237.424 284.797 237.284 284.346 237.008 284.055C236.737 283.763 236.312 283.617 235.734 283.617C235.266 283.617 234.854 283.742 234.5 283.992C234.146 284.242 233.87 284.57 233.672 284.977V291H232.227V279H233.672V283.57Z" fill="#8794BA"/>
<rect x="94" y="176" width="220" height="1" fill="#2A407C"/>
<defs>
<filter id="filter0_d" x="0" y="0" width="410" height="510" filterUnits="userSpaceOnUse" color-interpolation-filters="sRGB">
<feFlood flood-opacity="0" result="BackgroundImageFix"/>
<feColorMatrix in="SourceAlpha" type="matrix" values="0 0 0 0 0 0 0 0 0 0 0 0 0 0 0 0 0 0 127 0"/>
<feMorphology radius="15" operator="erode" in="SourceAlpha" result="effect1_dropShadow"/>
<feOffset dy="18"/>
<feGaussianBlur stdDeviation="25"/>
<feColorMatrix type="matrix" values="0 0 0 0 0.0996452 0 0 0 0 0.164326 0 0 0 0 0.350284 0 0 0 0.2 0"/>
<feBlend mode="normal" in2="BackgroundImageFix" result="effect1_dropShadow"/>
<feBlend mode="normal" in="SourceGraphic" in2="effect1_dropShadow" result="shape"/>
</filter>
</defs>
</svg>
